<svg width="26" height="26" viewBox="0 0 26 26" fill="none" xmlns="http://www.w3.org/2000/svg">
<g id="&#231;&#188;&#150;&#231;&#187;&#132; 3">
<circle id="&#230;&#164;&#173;&#229;&#156;&#134;&#229;&#189;&#162;" cx="13" cy="13" r="13" fill="#FFF803"/>
<path id="C" d="M13.156 19.356C14.542 19.356 15.73 18.96 16.72 18.168C17.782 17.322 18.448 16.152 18.736 14.64H16.684C16.432 15.612 16 16.35 15.388 16.836C14.812 17.268 14.056 17.502 13.138 17.502C11.734 17.502 10.69 17.052 10.024 16.188C9.412 15.378 9.106 14.208 9.106 12.696C9.106 11.22 9.412 10.068 10.042 9.24C10.726 8.304 11.734 7.854 13.084 7.854C13.984 7.854 14.722 8.034 15.298 8.43C15.892 8.826 16.288 9.438 16.504 10.284H18.556C18.358 8.988 17.8 7.944 16.864 7.188C15.892 6.396 14.632 6 13.12 6C11.068 6 9.502 6.666 8.422 8.034C7.468 9.222 7 10.788 7 12.696C7 14.64 7.45 16.188 8.368 17.34C9.412 18.672 11.014 19.356 13.156 19.356Z" fill="#070808"/>
</g>
</svg>
