<svg width="102" height="122" viewBox="0 0 102 122" fill="none" xmlns="http://www.w3.org/2000/svg">
<rect width="102" height="122" fill="#F2F2F2"/>
<path d="M-496 -1821C-496 -1822.1 -495.105 -1823 -494 -1823H9762C9763.1 -1823 9764 -1822.1 9764 -1821V5542C9764 5543.1 9763.1 5544 9762 5544H-494C-495.105 5544 -496 5543.1 -496 5542V-1821Z" fill="#6A6A6A"/>
<path d="M-494 -1822H9762V-1824H-494V-1822ZM9763 -1821V5542H9765V-1821H9763ZM9762 5543H-494V5545H9762V5543ZM-495 5542V-1821H-497V5542H-495ZM-494 5543C-494.552 5543 -495 5542.55 -495 5542H-497C-497 5543.66 -495.657 5545 -494 5545V5543ZM9763 5542C9763 5542.55 9762.55 5543 9762 5543V5545C9763.66 5545 9765 5543.66 9765 5542H9763ZM9762 -1822C9762.55 -1822 9763 -1821.55 9763 -1821H9765C9765 -1822.66 9763.66 -1824 9762 -1824V-1822ZM-494 -1824C-495.657 -1824 -497 -1822.66 -497 -1821H-495C-495 -1821.55 -494.552 -1822 -494 -1822V-1824Z" fill="white" fill-opacity="0.1"/>
<g clip-path="url(#clip0_0_125)">
<rect width="375" height="1471" transform="translate(-136 -1127)" fill="#070808"/>
<g clip-path="url(#clip1_0_125)">
<g clip-path="url(#clip2_0_125)">
<path fill-rule="evenodd" clip-rule="evenodd" d="M50.9995 1C51.6373 1.50603 52.5032 2.17069 53.5778 2.94502L54.0886 3.31C61.5321 8.58593 77.774 18.2281 97.4276 18.5504C97.4276 18.5504 120.147 95.6235 50.9995 121C-18.1438 95.6235 4.57141 18.5504 4.57141 18.5504C24.2296 18.2281 40.471 8.58593 47.912 3.31L48.4225 2.94502C49.4967 2.17069 50.3622 1.50603 50.9995 1ZM50.9996 8C46.669 11.4384 30.4171 23.1679 9.98808 23.5029C9.98808 23.5029 -10.077 91.584 50.9996 114C112.079 91.584 92.011 23.5029 92.011 23.5029C71.5867 23.1679 55.3335 11.4384 50.9996 8Z" fill="#070808" stroke="#FFF803"/>
<path fill-rule="evenodd" clip-rule="evenodd" d="M48.7234 37.3264C44.4905 37.3264 41.0433 40.8127 41.0433 45.0972V48.2773C41.0433 52.5614 44.4905 56.0477 48.7234 56.0477H52.2774C56.5116 56.0477 59.9557 52.5614 59.9557 48.2773V45.0972C59.9557 40.8127 56.5116 37.3264 52.2774 37.3264H48.7234ZM52.2774 59.3751H48.7234C42.6769 59.3751 37.7554 54.3962 37.7554 48.2773V45.0972C37.7554 38.977 42.6769 34 48.7234 34H52.2774C58.3245 34 63.2467 38.977 63.2467 45.0972V48.2773C63.2467 54.3962 58.3245 59.3751 52.2774 59.3751Z" fill="#070808" stroke="#FFF803" stroke-width="0.804302"/>
<path fill-rule="evenodd" clip-rule="evenodd" d="M69 75.114C69 81.1018 64.1588 85.9999 58.2423 85.9999H42.7564C36.8406 85.9999 32 81.1018 32 75.114V59.444C32 53.4588 36.8406 48.5579 42.7564 48.5579H58.2423C64.1588 48.5579 69 53.4588 69 59.444V75.114Z" fill="#FFF803"/>
<path fill-rule="evenodd" clip-rule="evenodd" d="M56.0495 61.6814C56.0495 58.5795 53.5665 56.063 50.4996 56.063C47.4342 56.063 44.9475 58.5795 44.9475 61.6814C44.9475 63.9058 46.2374 65.8127 48.0911 66.7212L45.3323 77.2454C45.2264 77.7719 45.5731 78.2004 46.1029 78.2004H54.896C55.4245 78.2004 55.7731 77.7719 55.6683 77.2454L52.9083 66.72C54.7617 65.8106 56.0495 63.9058 56.0495 61.6814Z" fill="#070808"/>
</g>
</g>
</g>
<defs>
<clipPath id="clip0_0_125">
<rect width="375" height="1471" fill="white" transform="translate(-136 -1127)"/>
</clipPath>
<clipPath id="clip1_0_125">
<rect width="350" height="320" fill="white" transform="translate(-124 -165)"/>
</clipPath>
<clipPath id="clip2_0_125">
<rect width="102" height="122" fill="white"/>
</clipPath>
</defs>
</svg>
