<svg width="115" height="121" viewBox="0 0 115 121" fill="none" xmlns="http://www.w3.org/2000/svg">
<g id="&#230;&#156;&#170;&#230;&#160;&#135;&#233;&#162;&#152;-2">
<path id="&#232;&#183;&#175;&#229;&#190;&#132;" d="M114.143 84.2019V52.5012H67.1705L61.3922 49.1521C59.0634 47.8031 56.1941 47.8031 53.8653 49.1521L48.087 52.5012H1.09912V84.2253C1.13117 86.8728 2.55983 89.3048 4.85287 90.6154L53.8459 118.994C56.1747 120.343 59.0439 120.343 61.3728 118.994L110.366 90.6154C112.659 89.3048 114.087 86.8728 114.12 84.2253L114.143 84.2019Z" fill="#070808" stroke="#FFF803"/>
<path id="&#231;&#155;&#180;&#231;&#186;&#191;" d="M57.1429 70.7203V119.577" stroke="#FFF803" stroke-linecap="square"/>
<path id="&#232;&#183;&#175;&#229;&#190;&#132;_2" d="M53.7526 87.5351L4.76352 59.1717C2.43465 57.8227 1 55.3296 1 52.6316C1 49.9335 2.43465 47.4404 4.76352 46.0914L53.7526 17.6929C56.0815 16.3439 58.9507 16.3439 61.2795 17.6929L110.28 46.0719C112.609 47.4209 114.044 49.914 114.044 52.6121C114.044 55.3101 112.609 57.8032 110.28 59.1522L61.2873 87.5351C58.9561 88.8855 56.0839 88.8855 53.7526 87.5351Z" fill="#FFF803" stroke="#FFF803"/>
<g id="&#232;&#183;&#175;&#229;&#190;&#132;_3" style="mix-blend-mode:multiply" opacity="0.69">
<path d="M6.62109 68.9149L31.9725 81.7301L71.2469 55.4837L46.9136 42.8167L6.62109 68.9149Z" fill="url(#paint0_linear_155_2007)"/>
</g>
<path id="&#232;&#183;&#175;&#229;&#190;&#132;_4" d="M40.7894 19.6267C40.7894 32.2782 46.1908 49.0506 56.6476 55.0781C67.1045 61.1056 78.6572 54.1112 78.6572 41.4598C78.6572 28.8083 70.1821 13.6695 59.7252 7.64198C52.9483 3.74323 43.0899 4.07073 39.7402 8.61277C37.9217 11.0807 40.7894 15.1744 40.7894 19.6267Z" fill="#070808" stroke="#FFF803"/>
<ellipse id="&#230;&#164;&#173;&#229;&#156;&#134;&#229;&#189;&#162;" cx="54.2725" cy="31.6798" rx="15.8114" ry="27.4274" transform="rotate(-27.85 54.2725 31.6798)" fill="#070808" stroke="#FFF803"/>
<g id="&#231;&#188;&#150;&#231;&#187;&#132; 15">
<path id="&#229;&#189;&#162;&#231;&#138;&#182;&#231;&#187;&#147;&#229;&#144;&#136;" fill-rule="evenodd" clip-rule="evenodd" d="M51.5555 12.6446C59.6973 16.4412 67.3808 28.0595 68.7171 38.5948C70.0534 49.1301 64.5364 54.5929 56.3947 50.7963C48.2529 46.9997 40.5694 35.3814 39.2331 24.8461C37.8968 14.3109 43.4137 8.84805 51.5555 12.6446ZM52.0206 16.3132C45.4446 13.2467 40.9886 17.659 42.0679 26.1682C43.1472 34.6775 49.3531 44.0615 55.9292 47.128C62.5052 50.1945 66.9612 45.7822 65.8819 37.2729C64.8026 28.7636 58.5967 19.3796 52.0206 16.3132Z" fill="#FFF803"/>
<path id="&#229;&#189;&#162;&#231;&#138;&#182;&#231;&#187;&#147;&#229;&#144;&#136;_2" fill-rule="evenodd" clip-rule="evenodd" d="M52.6464 19.9816C56.9412 21.9843 61.0245 27.4082 62.6899 32.9484L58.4087 30.9518C57.2845 28.3821 55.3334 26.0666 53.2979 25.1174C50.4345 23.7821 48.4882 25.6561 48.9508 29.3029C49.4133 32.9497 52.1095 36.9885 54.9729 38.3237C57.0081 39.2727 58.5799 38.6006 59.1529 36.8231L63.4343 38.8192C63.0528 43.4043 59.9188 45.462 55.6244 43.4595C50.5339 41.0858 45.7406 33.9058 44.9183 27.4225C44.0959 20.9393 47.5559 17.6078 52.6464 19.9816Z" fill="white"/>
</g>
</g>
<defs>
<linearGradient id="paint0_linear_155_2007" x1="58.2006" y1="4.47235" x2="24.9491" y2="66.3884" gradientUnits="userSpaceOnUse">
<stop stop-color="#2E3168"/>
<stop offset="1" stop-color="white"/>
</linearGradient>
</defs>
</svg>
