<svg width="124" height="121" viewBox="0 0 124 121" fill="none" xmlns="http://www.w3.org/2000/svg">
<path fill-rule="evenodd" clip-rule="evenodd" d="M117.976 109.464V117.398C117.976 118.68 103.707 119.72 86.1054 119.72C68.5038 119.72 54.2349 118.68 54.2349 117.398V109.464H117.976Z" fill="#070808"/>
<path fill-rule="evenodd" clip-rule="evenodd" d="M94.9116 119.63V109.464H117.976V117.398C117.976 118.458 108.23 119.352 94.9116 119.63Z" fill="#FFF803"/>
<path fill-rule="evenodd" clip-rule="evenodd" d="M93.8382 119.651C91.3625 119.696 88.7721 119.72 86.1054 119.72C82.1315 119.72 78.3277 119.667 74.8193 119.57V109.464H93.8382V119.651Z" fill="#FFF803"/>
<path fill-rule="evenodd" clip-rule="evenodd" d="M73.5425 119.533C62.1876 119.177 54.2349 118.355 54.2349 117.398V109.464H73.5425V119.533Z" fill="#EAB054"/>
<path fill-rule="evenodd" clip-rule="evenodd" d="M86.1054 111.702C103.707 111.702 117.976 110.662 117.976 109.38C117.976 108.097 103.707 107.057 86.1054 107.057C68.5038 107.057 54.2349 108.097 54.2349 109.38C54.2349 110.662 68.5038 111.702 86.1054 111.702Z" fill="#070808"/>
<path fill-rule="evenodd" clip-rule="evenodd" d="M59.8606 109.38C59.8606 110.269 71.6107 110.99 86.1052 110.99C100.6 110.99 112.35 110.269 112.35 109.38C112.35 108.491 100.6 107.77 86.1052 107.77C71.6107 107.77 59.8606 108.491 59.8606 109.38Z" fill="#F7CC7F"/>
<mask id="mask0_155_2028" style="mask-type:luminance" maskUnits="userSpaceOnUse" x="59" y="101" width="65" height="11">
<path fill-rule="evenodd" clip-rule="evenodd" d="M59.6875 101.068H123.428V111.324H59.6875V101.068Z" fill="white"/>
</mask>
<g mask="url(#mask0_155_2028)">
<path fill-rule="evenodd" clip-rule="evenodd" d="M123.428 101.068V109.002C123.428 110.285 109.159 111.324 91.5579 111.324C73.9563 111.324 59.6875 110.285 59.6875 109.002V101.068H123.428Z" fill="#070808"/>
</g>
<mask id="mask1_155_2028" style="mask-type:luminance" maskUnits="userSpaceOnUse" x="100" y="101" width="24" height="11">
<path fill-rule="evenodd" clip-rule="evenodd" d="M100.364 101.068H123.428V111.235H100.364V101.068Z" fill="white"/>
</mask>
<g mask="url(#mask1_155_2028)">
<path fill-rule="evenodd" clip-rule="evenodd" d="M100.364 111.235V101.068H123.428V109.002C123.428 110.062 113.683 110.956 100.364 111.235Z" fill="#FFF803"/>
</g>
<path fill-rule="evenodd" clip-rule="evenodd" d="M99.2911 111.256C96.8153 111.301 94.225 111.324 91.5583 111.324C87.5844 111.324 83.7805 111.271 80.2722 111.175V101.068H99.2911V111.256Z" fill="#FFF803"/>
<path fill-rule="evenodd" clip-rule="evenodd" d="M78.9952 111.137C67.6403 110.782 59.6877 109.96 59.6877 109.002V101.069H78.9952V111.137Z" fill="#EAB054"/>
<mask id="mask2_155_2028" style="mask-type:luminance" maskUnits="userSpaceOnUse" x="59" y="98" width="65" height="6">
<path fill-rule="evenodd" clip-rule="evenodd" d="M59.6877 98.6619H123.429V103.307H59.6877V98.6619Z" fill="white"/>
</mask>
<g mask="url(#mask2_155_2028)">
<path fill-rule="evenodd" clip-rule="evenodd" d="M59.6877 100.984C59.6877 102.267 73.9565 103.307 91.5581 103.307C109.16 103.307 123.429 102.267 123.429 100.984C123.429 99.7018 109.16 98.6619 91.5581 98.6619C73.9565 98.6619 59.6877 99.7018 59.6877 100.984Z" fill="#070808"/>
</g>
<path fill-rule="evenodd" clip-rule="evenodd" d="M65.3132 100.984C65.3132 101.874 77.0634 102.594 91.5579 102.594C106.052 102.594 117.802 101.874 117.802 100.984C117.802 100.095 106.052 99.374 91.5579 99.374C77.0634 99.374 65.3132 100.095 65.3132 100.984Z" fill="#F7CC7F"/>
<path fill-rule="evenodd" clip-rule="evenodd" d="M119.795 92.45V100.384C119.795 101.666 105.526 102.706 87.925 102.706C70.3234 102.706 56.0544 101.666 56.0544 100.384V92.45H119.795Z" fill="#070808"/>
<path fill-rule="evenodd" clip-rule="evenodd" d="M96.7314 102.616V92.45H119.796V100.384C119.796 101.444 110.05 102.338 96.7314 102.616Z" fill="#FFF803"/>
<path fill-rule="evenodd" clip-rule="evenodd" d="M95.6581 102.637C93.1821 102.682 90.592 102.706 87.9252 102.706C83.9513 102.706 80.1475 102.653 76.6392 102.556V92.45H95.6581V102.637Z" fill="#FFF803"/>
<path fill-rule="evenodd" clip-rule="evenodd" d="M75.3621 102.519C64.0072 102.163 56.0544 101.341 56.0544 100.384V92.4502H75.3621V102.519Z" fill="#FFF803"/>
<path fill-rule="evenodd" clip-rule="evenodd" d="M56.0544 92.3657C56.0544 93.6483 70.3234 94.688 87.925 94.688C105.527 94.688 119.795 93.6483 119.795 92.3657C119.795 91.0831 105.527 90.0432 87.925 90.0432C70.3234 90.0432 56.0544 91.0831 56.0544 92.3657Z" fill="#070808"/>
<path fill-rule="evenodd" clip-rule="evenodd" d="M61.6804 92.3657C61.6804 93.2549 73.4305 93.9758 87.925 93.9758C102.42 93.9758 114.17 93.2549 114.17 92.3657C114.17 91.4765 102.42 90.7556 87.925 90.7556C73.4305 90.7556 61.6804 91.4765 61.6804 92.3657Z" fill="#F7CC7F"/>
<mask id="mask3_155_2028" style="mask-type:luminance" maskUnits="userSpaceOnUse" x="59" y="83" width="65" height="12">
<path fill-rule="evenodd" clip-rule="evenodd" d="M59.6875 83.9495H123.428V94.2056H59.6875V83.9495Z" fill="white"/>
</mask>
<g mask="url(#mask3_155_2028)">
<path fill-rule="evenodd" clip-rule="evenodd" d="M123.428 83.9495V91.8833C123.428 93.1658 109.159 94.2056 91.5579 94.2056C73.9563 94.2056 59.6875 93.1658 59.6875 91.8833V83.9495H123.428Z" fill="#070808"/>
</g>
<mask id="mask4_155_2028" style="mask-type:luminance" maskUnits="userSpaceOnUse" x="100" y="83" width="24" height="12">
<path fill-rule="evenodd" clip-rule="evenodd" d="M100.364 83.9495H123.428V94.1157H100.364V83.9495Z" fill="white"/>
</mask>
<g mask="url(#mask4_155_2028)">
<path fill-rule="evenodd" clip-rule="evenodd" d="M100.364 94.1157V83.9495H123.428V91.8831C123.428 92.9432 113.683 93.8372 100.364 94.1157Z" fill="#FFF803"/>
<path d="M100.364 94.1157V83.9495H123.428V91.8831C123.428 92.9432 113.683 93.8372 100.364 94.1157" stroke="#070808"/>
</g>
<path fill-rule="evenodd" clip-rule="evenodd" d="M99.2911 94.1367C96.8153 94.1817 94.225 94.2056 91.5583 94.2056C87.5844 94.2056 83.7805 94.1526 80.2722 94.0557V83.9495H99.2911V94.1367Z" fill="#FFF803" stroke="#070808"/>
<path fill-rule="evenodd" clip-rule="evenodd" d="M78.9952 94.0181C67.6403 93.6629 59.6877 92.8408 59.6877 91.8831V83.9495H78.9952V94.0181Z" fill="#FFF803" stroke="#070808"/>
<mask id="mask5_155_2028" style="mask-type:luminance" maskUnits="userSpaceOnUse" x="59" y="81" width="65" height="6">
<path fill-rule="evenodd" clip-rule="evenodd" d="M59.6877 81.543H123.429V86.1877H59.6877V81.543Z" fill="white"/>
</mask>
<g mask="url(#mask5_155_2028)">
<path fill-rule="evenodd" clip-rule="evenodd" d="M59.6877 83.8653C59.6877 85.1478 73.9565 86.1877 91.5581 86.1877C109.16 86.1877 123.429 85.1478 123.429 83.8653C123.429 82.5829 109.16 81.543 91.5581 81.543C73.9565 81.543 59.6877 82.5829 59.6877 83.8653Z" fill="#070808"/>
<path d="M59.6877 83.8653C59.6877 85.1478 73.9565 86.1877 91.5581 86.1877C109.16 86.1877 123.429 85.1478 123.429 83.8653C123.429 82.5829 109.16 81.543 91.5581 81.543C73.9565 81.543 59.6877 82.5829 59.6877 83.8653" stroke="#FFF803"/>
</g>
<path fill-rule="evenodd" clip-rule="evenodd" d="M65.3132 83.8652C65.3132 84.7546 77.0634 85.4753 91.5579 85.4753C106.052 85.4753 117.802 84.7546 117.802 83.8652C117.802 82.976 106.052 82.2551 91.5579 82.2551C77.0634 82.2551 65.3132 82.976 65.3132 83.8652Z" fill="#070808"/>
<path fill-rule="evenodd" clip-rule="evenodd" d="M23.1089 119.72H78.9414V99.3428H23.1089V119.72Z" fill="#FFF803"/>
<path fill-rule="evenodd" clip-rule="evenodd" d="M23.1089 104.934H78.9414V102.312H23.1089V104.934Z" fill="#070808"/>
<path fill-rule="evenodd" clip-rule="evenodd" d="M23.1089 110.054H78.9414V107.433H23.1089V110.054Z" fill="#070808"/>
<path fill-rule="evenodd" clip-rule="evenodd" d="M23.1089 115.175H78.9414V112.553H23.1089V115.175Z" fill="#070808"/>
<path fill-rule="evenodd" clip-rule="evenodd" d="M23.1089 119.72H78.9414V117.099H23.1089V119.72Z" fill="#070808"/>
<path fill-rule="evenodd" clip-rule="evenodd" d="M43.8931 119.72H55.5049V99.3428H43.8931V119.72Z" fill="#FFF803" stroke="#070808"/>
<path fill-rule="evenodd" clip-rule="evenodd" d="M78.2639 119.72H86.6957V99.3428H78.2639V119.72Z" fill="#FFF803" stroke="#070808"/>
<path fill-rule="evenodd" clip-rule="evenodd" d="M70.2141 40.4526C68.0274 40.8079 68.1565 41.1659 67.8753 41.2039C67.5425 41.2484 63.5954 39.2608 63.5954 39.2608C63.5954 39.2608 51.9209 33.4828 51.3021 33.1476L42.8755 22.5168L36.3816 25.52C36.3816 25.52 45.8584 36.8227 46.4579 37.3205C47.0576 37.8186 63.7965 43.7046 65.2521 44.2723C65.2521 44.2723 66.7198 45.6175 67.6695 46.4301C68.6193 47.2425 69.8892 47.5647 70.1924 47.7497C70.2371 47.777 71.2844 48.3317 72.7647 48.6545C74.0404 48.9327 72.9775 48.0638 72.9775 48.0638C72.9775 48.0638 70.7206 47.1086 70.8316 46.9358C70.9172 46.8028 72.1168 47.4003 73.5245 47.7233C73.8865 47.8063 74.2442 47.887 74.5733 47.9583C75.4371 48.1455 75.8168 47.6498 74.9486 47.3046C74.642 47.1828 74.1275 46.9931 73.7401 46.9121C73.3215 46.8244 72.9698 46.6041 72.6311 46.4749C71.9584 46.2182 71.4644 46.0399 71.4912 46.0167C71.5256 45.9867 71.4308 45.8377 71.8181 45.9134C72.2838 46.0046 73.223 46.4248 73.9201 46.5038C74.3152 46.5486 75.1336 46.6943 75.1336 46.6943C75.1336 46.6943 76.5819 46.8331 76.5917 46.6296C76.6134 46.1847 75.7215 45.9361 75.174 45.9476C74.8288 45.771 73.9626 45.6432 73.9626 45.6432C73.9626 45.6432 72.2829 44.9783 72.3804 44.729C72.4193 44.6295 73.4364 44.7827 74.5153 44.8567C75.6562 44.935 76.4825 44.9347 76.5433 44.7133C76.6399 44.3618 75.732 44.2286 75.732 44.2286C75.732 44.2286 74.9313 44.1116 74.6692 44.0518C74.3619 43.9814 73.46 43.6981 73.46 43.6981C73.46 43.6981 70.3704 42.5602 70.4821 42.3313C70.5934 42.1025 71.1037 41.624 71.3216 41.6253C71.5394 41.6266 71.9291 41.8445 72.1471 41.8458C72.3648 41.847 72.8335 41.8048 72.8661 41.53C72.8987 41.2549 71.689 40.6857 71.689 40.6857C71.689 40.6857 70.8453 40.3499 70.2141 40.4526Z" fill="#070808"/>
<path d="M70.2141 40.4526C68.0274 40.8079 68.1565 41.1659 67.8753 41.2039C67.5425 41.2484 63.5954 39.2608 63.5954 39.2608C63.5954 39.2608 51.9209 33.4828 51.3021 33.1476L42.8755 22.5168L36.3816 25.52C36.3816 25.52 45.8584 36.8227 46.4579 37.3205C47.0576 37.8186 63.7965 43.7046 65.2521 44.2723C65.2521 44.2723 66.7198 45.6175 67.6695 46.4301C68.6193 47.2425 69.8892 47.5647 70.1924 47.7497C70.2371 47.777 71.2844 48.3317 72.7647 48.6545C74.0404 48.9327 72.9775 48.0638 72.9775 48.0638C72.9775 48.0638 70.7206 47.1086 70.8316 46.9358C70.9172 46.8028 72.1168 47.4003 73.5245 47.7233C73.8865 47.8063 74.2442 47.887 74.5733 47.9583C75.4371 48.1455 75.8168 47.6498 74.9486 47.3046C74.642 47.1828 74.1275 46.9931 73.7401 46.9121C73.3215 46.8244 72.9698 46.6041 72.6311 46.4749C71.9584 46.2182 71.4644 46.0399 71.4912 46.0167C71.5256 45.9867 71.4308 45.8377 71.8181 45.9134C72.2838 46.0046 73.223 46.4248 73.9201 46.5038C74.3152 46.5486 75.1336 46.6943 75.1336 46.6943C75.1336 46.6943 76.5819 46.8331 76.5917 46.6296C76.6134 46.1847 75.7215 45.9361 75.174 45.9476C74.8288 45.771 73.9626 45.6432 73.9626 45.6432C73.9626 45.6432 72.2829 44.9783 72.3804 44.729C72.4193 44.6295 73.4364 44.7827 74.5153 44.8567C75.6562 44.935 76.4825 44.9347 76.5433 44.7133C76.6399 44.3618 75.732 44.2286 75.732 44.2286C75.732 44.2286 74.9313 44.1116 74.6692 44.0518C74.3619 43.9814 73.46 43.6981 73.46 43.6981C73.46 43.6981 70.3704 42.5602 70.4821 42.3313C70.5934 42.1025 71.1037 41.624 71.3216 41.6253C71.5394 41.6266 71.9291 41.8445 72.1471 41.8458C72.3648 41.847 72.8335 41.8048 72.8661 41.53C72.8987 41.2549 71.689 40.6857 71.689 40.6857C71.689 40.6857 70.8453 40.3499 70.2141 40.4526" stroke="#FFF803"/>
<path fill-rule="evenodd" clip-rule="evenodd" d="M48.7394 29.1011C48.7394 29.1011 46.6372 31.0161 45.7628 31.6466C45.0359 32.1706 41.4935 33.8816 41.4935 33.8816C41.4935 33.8816 37.9694 28.4701 36.4283 25.7566C34.5588 22.4642 33.2643 17.5683 33.7063 17.4356C34.9464 17.0629 36.6528 16.8352 38.2287 17.5606C43.6813 20.0701 48.7394 29.1011 48.7394 29.1011Z" fill="#FFF803"/>
<path fill-rule="evenodd" clip-rule="evenodd" d="M68.1721 43.2807C69.1077 43.4287 70.0643 43.2503 70.4789 42.3916C70.5721 43.4102 69.0326 43.9157 68.1721 43.2807Z" fill="#FE875E"/>
<path d="M14.4923 116.277L14.4923 116.277C14.4605 116.472 14.3961 116.768 14.3292 117.076C14.3005 117.207 14.2714 117.341 14.2442 117.47C14.1496 117.918 14.0817 118.291 14.0758 118.476C14.0794 118.478 14.0834 118.479 14.0878 118.481C14.1936 118.52 14.4052 118.544 14.7401 118.51C15.3917 118.446 16.2805 118.192 17.1412 117.848C18.0042 117.503 18.7789 117.091 19.2179 116.74C19.2984 116.676 19.3617 116.619 19.4096 116.569C19.2534 116.477 19.0343 116.323 18.8313 116.134C18.5746 115.895 18.2285 115.495 18.1851 114.995M14.4923 116.277L18.6832 114.951M14.4923 116.277L14.4928 116.274C14.4945 116.262 14.4964 116.246 14.4968 116.242L14.4973 116.235L14.4977 116.23L14.4981 116.225L14.4987 116.214L14.5008 116.178L14.5084 116.045L14.5352 115.573L14.6158 114.146L14.6961 112.721L14.7056 112.552M14.4923 116.277L14.7056 112.552M18.1851 114.995L18.6832 114.951M18.1851 114.995C18.1851 114.995 18.1851 114.995 18.1851 114.995L18.6832 114.951M18.1851 114.995C18.1446 114.528 18.0729 113.82 18.0108 113.226C17.9863 112.991 17.9633 112.773 17.9445 112.597M18.6832 114.951C18.6015 114.009 18.3944 112.104 18.3944 112.104M17.9445 112.597L18.3874 112.604L18.3944 112.104M17.9445 112.597L14.7056 112.552M17.9445 112.597C17.9397 112.552 17.9351 112.509 17.9308 112.469L17.9063 112.241L17.8996 112.179L17.8979 112.163L17.8974 112.159L17.8973 112.158L17.8973 112.158L17.8973 112.158L18.3944 112.104M18.3944 112.104L14.7056 112.552M19.5441 116.624L19.7422 116.18L19.5439 116.623C19.544 116.624 19.5441 116.624 19.5441 116.624ZM19.5699 116.653C19.5707 116.653 19.571 116.654 19.571 116.654L19.5699 116.653Z" fill="#070808" stroke="#FFF803"/>
<path fill-rule="evenodd" clip-rule="evenodd" d="M19.8185 116.198C19.8185 116.198 17.9526 116.747 16.9968 116.885C16.0411 117.022 14.7812 115.865 14.1052 116.178C13.3612 116.522 13.3903 119.617 13.3903 119.617C13.3903 119.617 23.3968 120.499 26.2107 119.587C27.3255 119.226 23.6333 117.478 19.8185 116.198Z" fill="#FFF803"/>
<path d="M4.64996 112.382L1.47023 112.337L1.46072 112.506L1.38041 113.931L1.29985 115.358L1.27309 115.83L1.26546 115.963L1.26335 115.999L1.2627 116.01L1.26237 116.015L1.26199 116.02L1.2614 116.027C1.26101 116.031 1.25915 116.048 1.25743 116.059L1.25693 116.063L1.25692 116.063C1.22517 116.257 1.16078 116.553 1.09384 116.861C1.06518 116.992 1.03605 117.126 1.00881 117.255C0.914229 117.703 0.846352 118.076 0.840499 118.261C0.844052 118.263 0.848026 118.264 0.852451 118.266C0.958267 118.305 1.16987 118.329 1.50474 118.296C2.15636 118.231 3.04513 117.977 3.90579 117.633C4.76878 117.288 5.54346 116.876 5.98252 116.525C6.06486 116.46 6.12922 116.401 6.17752 116.35C6.14947 116.331 6.12491 116.313 6.10619 116.299C6.0494 116.256 5.98413 116.203 5.91477 116.143C5.77589 116.023 5.6089 115.866 5.44521 115.69C5.28276 115.515 5.1146 115.312 4.98035 115.102C4.85281 114.902 4.72311 114.646 4.69945 114.373L4.64996 112.382ZM4.64996 112.382C4.6487 112.494 4.64779 112.62 4.64763 112.755C4.64704 113.25 4.65656 113.879 4.69943 114.373L4.64996 112.382ZM6.33556 116.439C6.33555 116.439 6.33514 116.439 6.3344 116.438L6.33556 116.439Z" fill="#070808" stroke="#FFF803"/>
<path fill-rule="evenodd" clip-rule="evenodd" d="M6.48707 115.948C6.48707 115.948 4.62113 116.498 3.66539 116.635C2.70965 116.772 1.44973 115.616 0.773734 115.928C0.0295864 116.272 0 119.368 0 119.368C0 119.368 9.93538 119.777 12.8792 119.337C14.0376 119.164 10.3019 117.228 6.48707 115.948Z" fill="#FFF803"/>
<path d="M3.05484 58.2628L3.05484 58.2628C2.78586 55.6664 2.98073 52.6362 3.24756 50.2382C3.38057 49.0428 3.53064 48.0116 3.64737 47.2796C3.70309 46.9303 3.75117 46.6494 3.78613 46.4516L6.45476 45.9321L13.2751 62.2222L13.2635 62.344L13.1975 63.04L12.9627 65.5183C12.7689 67.5659 12.5116 70.2881 12.2577 72.9862C12.0038 75.6842 11.7533 78.3583 11.5732 80.3098C11.4831 81.2854 11.4106 82.081 11.3639 82.6088C11.3407 82.8723 11.3237 83.0709 11.3142 83.1921C11.3119 83.2216 11.3098 83.2491 11.3082 83.2731C11.2991 83.3139 11.287 83.3711 11.2723 83.4417C11.2347 83.6217 11.1767 83.907 11.1014 84.2817C10.9506 85.0317 10.7293 86.1449 10.4608 87.5018C9.92364 90.2158 9.19722 93.9068 8.46741 97.6217C7.73759 101.337 7.00434 105.076 6.45355 107.886L5.78743 111.286L5.6154 112.164L1.16019 112.06L3.6478 82.4801L3.64961 82.4586L3.64956 82.4371L3.14956 82.4382C3.64956 82.4371 3.64956 82.437 3.64956 82.4368L3.64956 82.4362L3.64955 82.4336L3.64953 82.4233L3.64942 82.3827L3.64894 82.2239C3.64849 82.0845 3.64776 81.8796 3.64663 81.6168C3.64437 81.0914 3.64054 80.3349 3.63422 79.4106C3.62159 77.5622 3.59902 75.0421 3.55929 72.3561C3.48001 66.9959 3.33206 60.9394 3.05484 58.2628ZM11.7178 82.9233C11.7578 82.9118 11.7991 82.9028 11.8406 82.8973C11.8397 82.9076 11.8388 82.9177 11.838 82.9277C11.7973 82.9237 11.7569 82.9222 11.7178 82.9233Z" fill="#070808" stroke="#FFF803"/>
<path d="M5.42126 42.0593C5.40278 42.0806 5.38304 42.1035 5.3621 42.128C5.20572 42.311 4.9829 42.582 4.72161 42.9298C4.19841 43.6262 3.52426 44.6259 2.92009 45.838C1.70766 48.2704 0.805034 51.4989 1.88341 54.844C2.34032 56.2609 4.69515 63.7237 6.94946 71.1083C8.07661 74.8005 9.17942 78.4758 10.0076 81.3671C10.4215 82.8124 10.7678 84.065 11.0143 85.0271C11.1375 85.5079 11.2367 85.9198 11.3072 86.2488C11.3755 86.5672 11.4236 86.8383 11.4327 87.0215M5.42126 42.0593L11.4327 87.0215M5.42126 42.0593L15.357 44.071L18.6931 49.9345L20.3383 86.3512L19.1104 113L14.2546 113.146M5.42126 42.0593L14.2546 113.146M11.4327 87.0215C11.4867 88.1059 12.2028 94.735 12.9096 101.126C13.2622 104.314 13.6114 107.434 13.8725 109.756C14.003 110.917 14.1115 111.879 14.1873 112.551L14.2546 113.146M11.4327 87.0215L14.2546 113.146" fill="#070808" stroke="#FFF803"/>
<path fill-rule="evenodd" clip-rule="evenodd" d="M42.2867 20.535C40.2888 18.2995 35.9395 15.1184 35.9395 15.1184C35.9395 15.1184 33.3488 12.8992 32.2925 12.534C30.7381 11.9967 28.0753 10.5629 24.2241 16.4158C21.4681 20.6042 4.07741 42.2916 1.22266 43.0217L19.8649 51.965C20.3752 47.6931 29.5894 39.6236 30.9153 38.118C33.8789 34.7525 44.1783 22.6515 42.2867 20.535Z" fill="#FFF803"/>
<path fill-rule="evenodd" clip-rule="evenodd" d="M41.4175 11.4485L35.6102 14.8577C35.6102 14.8577 35.4468 19.8281 37.3453 21.1192C38.9382 22.2026 40.1506 19.6028 40.1506 19.6028C40.1506 19.6028 42.31 16.602 43.9503 15.6674C45.5905 14.7325 41.4175 11.4485 41.4175 11.4485Z" fill="#070808"/>
<path d="M41.4175 11.4485L35.6102 14.8577C35.6102 14.8577 35.4468 19.8281 37.3453 21.1192C38.9382 22.2026 40.1506 19.6028 40.1506 19.6028C40.1506 19.6028 42.31 16.602 43.9503 15.6674C45.5905 14.7325 41.4175 11.4485 41.4175 11.4485" stroke="#FFF803"/>
<path fill-rule="evenodd" clip-rule="evenodd" d="M44.4422 2.90473C44.3446 2.78355 39.5709 8.74224 40.1597 11.5372C40.7482 14.3322 43.6339 16.8827 45.6398 16.1813C47.8583 15.4058 51.9834 8.39072 50.5039 4.98468C49.0244 1.57881 44.4422 2.90473 44.4422 2.90473Z" fill="#070808"/>
<path d="M44.4422 2.90473C44.3446 2.78355 39.5709 8.74224 40.1597 11.5372C40.7482 14.3322 43.6339 16.8827 45.6398 16.1813C47.8583 15.4058 51.9834 8.39071 50.5039 4.98468C49.0244 1.57881 44.4422 2.90473 44.4422 2.90473" stroke="#FFF803"/>
<path fill-rule="evenodd" clip-rule="evenodd" d="M49.6691 1.02508C47.5881 -0.135825 44.1934 -0.469011 41.6573 0.862567C38.5388 2.5 37.8285 6.61941 38.8047 9.13222C39.7811 11.6449 38.6631 13.0653 38.6631 13.0653L40.3173 12.0966C40.3173 12.0966 41.2835 10.5843 41.4098 9.37873C41.5358 8.1735 43.2896 8.38684 44.1456 7.84031C44.8046 7.41929 45.646 6.05137 46.7124 5.3415C46.7124 5.3415 49.3978 5.01114 50.7182 5.75435C52.9696 7.02126 52.6497 2.68767 49.6691 1.02508Z" fill="#FFF803"/>
<path fill-rule="evenodd" clip-rule="evenodd" d="M42.8038 8.84462C42.8193 9.73851 42.3979 10.4704 41.8627 10.4792C41.3276 10.4879 40.8813 9.77051 40.8659 8.87646C40.8504 7.98257 41.2718 7.25069 41.8068 7.24203C42.3421 7.23303 42.7883 7.95074 42.8038 8.84462Z" fill="#070808"/>
<path fill-rule="evenodd" clip-rule="evenodd" d="M47.6932 13.5893L45.1661 11.6943C45.1661 11.6943 44.4979 12.7181 45.5849 13.5844C46.9103 14.6405 47.6932 13.5893 47.6932 13.5893Z" fill="#FFF803"/>
<path fill-rule="evenodd" clip-rule="evenodd" d="M99.0482 45.9488C101.202 60.7643 91.0662 74.5049 76.4094 76.6396C61.7528 78.7738 48.1253 68.4941 45.9717 53.6785C43.8178 38.863 53.9537 25.1224 68.6102 22.9877C83.267 20.8533 96.8943 31.1332 99.0482 45.9488Z" fill="#FFF803"/>
<path fill-rule="evenodd" clip-rule="evenodd" d="M95.4489 46.4729C97.3105 59.279 88.5496 71.1562 75.8806 73.0011C63.212 74.8461 51.4328 65.9604 49.5712 53.1543C47.7096 40.3482 56.4706 28.4712 69.1393 26.6262C81.8082 24.7811 93.5873 33.667 95.4489 46.4729Z" fill="#070808"/>
<path fill-rule="evenodd" clip-rule="evenodd" d="M68.8079 32.1755C78.4943 29.9392 88.1594 35.9787 90.3957 45.665C92.632 55.3513 86.5925 65.0165 76.9062 67.2528C67.2198 69.489 57.5547 63.4496 55.3184 53.7633C53.0821 44.0769 59.1216 34.4118 68.8079 32.1755ZM69.5866 35.5483C61.763 37.3545 56.885 45.161 58.6912 52.9846C60.4974 60.8081 68.3039 65.6862 76.1275 63.88C83.9511 62.0738 88.8291 54.2673 87.0229 46.4437C85.2167 38.6201 77.4102 33.7421 69.5866 35.5483Z" fill="#FFF803"/>
<path fill-rule="evenodd" clip-rule="evenodd" d="M70.5242 38.8168C75.6643 37.6301 80.7821 40.0932 83.0877 44.4935L77.9641 45.6762C76.4845 43.8996 74.0571 43.0044 71.6208 43.5669C68.1939 44.358 66.0471 47.7337 66.8258 51.1066C67.6045 54.4795 71.0138 56.5724 74.4407 55.7813C76.8767 55.2189 78.6658 53.3506 79.2172 51.1056L84.3409 49.9226C84.1972 54.8878 80.6772 59.3447 75.5374 60.5313C69.4451 61.9378 63.3841 58.2171 61.9998 52.2208C60.6154 46.2245 64.4319 40.2233 70.5242 38.8168Z" fill="white"/>
<path fill-rule="evenodd" clip-rule="evenodd" d="M54.0406 51.2856C53.4075 50.3585 53.1314 49.0198 52.2561 47.9989C51.9622 47.656 51.4945 47.2695 50.9614 46.8845C46.7507 44.4142 35.7821 38.046 35.3553 37.5519C34.8493 36.9662 27.3628 24.4933 27.3628 24.4933L34.0867 22.9656L40.6574 34.6006C41.2062 35.0375 51.6366 42.7676 51.6366 42.7676C51.6366 42.7676 53.7105 44.3928 54.8442 45.153C55.4172 45.4884 55.9727 45.7052 56.4587 45.8748C57.0705 46.0883 58.2369 46.6708 58.4724 46.879C58.7463 47.1207 59.2947 47.6375 59.6204 47.953C59.9464 48.2684 60.3417 48.6249 60.4942 48.8126C60.5872 48.9269 60.8755 49.0844 61.0871 49.1903C61.4023 49.348 61.3612 49.8158 61.0225 49.912C60.7032 50.0027 60.2718 49.8018 60.0042 49.6758C59.2493 49.32 58.327 48.3591 58.2781 48.4766C58.229 48.5941 59.1658 50.6525 59.2578 50.8947C59.3497 51.1371 60.4256 53.5355 60.4806 54.0704C60.5358 54.6051 60.2147 54.7284 59.9755 54.5329C59.7699 54.3648 58.0399 51.1621 58.0399 51.1621C58.0399 51.1621 57.8183 50.7542 57.7322 50.9876C57.6463 51.2209 59.2111 54.1317 59.364 54.6096C59.5167 55.0876 59.3951 55.4791 58.9546 55.3116C58.4189 55.108 56.9391 51.8974 56.9391 51.8974C56.9391 51.8974 56.7467 51.4983 56.6151 51.6373C56.4836 51.7763 57.8562 54.2307 57.8715 54.5134C57.8868 54.7961 57.6323 55.0751 57.262 54.8388C56.8257 54.5606 55.5294 51.6831 55.5294 51.6831C55.5294 51.6831 55.3693 51.4928 55.3189 51.6266C55.2687 51.7603 56.2901 53.9366 56.2139 54.2546C56.1497 54.5218 55.9103 54.4683 55.9103 54.4683C55.3758 54.4668 54.6739 52.2126 54.0406 51.2856Z" fill="#070808"/>
<path d="M54.0406 51.2856C53.4075 50.3585 53.1314 49.0198 52.2561 47.9989C51.9622 47.656 51.4945 47.2695 50.9614 46.8845C46.7507 44.4142 35.7821 38.046 35.3553 37.5519C34.8493 36.9662 27.3628 24.4933 27.3628 24.4933L34.0867 22.9656L40.6574 34.6006C41.2062 35.0375 51.6366 42.7676 51.6366 42.7676C51.6366 42.7676 53.7105 44.3928 54.8442 45.153C55.4172 45.4884 55.9727 45.7052 56.4587 45.8748C57.0705 46.0883 58.2369 46.6708 58.4724 46.879C58.7463 47.1207 59.2947 47.6375 59.6204 47.953C59.9464 48.2684 60.3417 48.6249 60.4942 48.8126C60.5872 48.9269 60.8755 49.0844 61.0871 49.1903C61.4023 49.348 61.3612 49.8158 61.0225 49.912C60.7032 50.0027 60.2718 49.8018 60.0042 49.6758C59.2493 49.32 58.327 48.3591 58.2781 48.4766C58.229 48.5941 59.1658 50.6525 59.2578 50.8947C59.3497 51.1371 60.4256 53.5355 60.4806 54.0704C60.5358 54.6051 60.2147 54.7284 59.9755 54.5329C59.7699 54.3648 58.0399 51.1621 58.0399 51.1621C58.0399 51.1621 57.8183 50.7542 57.7322 50.9876C57.6463 51.2209 59.2111 54.1317 59.364 54.6096C59.5167 55.0876 59.3951 55.4792 58.9546 55.3116C58.4189 55.108 56.9391 51.8974 56.9391 51.8974C56.9391 51.8974 56.7467 51.4983 56.6151 51.6373C56.4836 51.7763 57.8562 54.2307 57.8715 54.5134C57.8868 54.7961 57.6323 55.0751 57.262 54.8388C56.8257 54.5606 55.5294 51.6831 55.5294 51.6831C55.5294 51.6831 55.3693 51.4927 55.3189 51.6266C55.2687 51.7603 56.2901 53.9366 56.2139 54.2546C56.1497 54.5218 55.9103 54.4683 55.9103 54.4683C55.3758 54.4668 54.6739 52.2126 54.0406 51.2856" stroke="#FFF803"/>
<path fill-rule="evenodd" clip-rule="evenodd" d="M29.2042 31.0816C29.2042 31.0816 31.3939 30.383 32.7986 29.738C33.7392 29.3063 37.8423 27.2587 37.8423 27.2587C37.8423 27.2587 36.0734 19.7761 34.8775 17.0854C30.4889 7.21149 25.5016 14.0212 24.8247 15.6085C23.3112 19.159 29.2042 31.0816 29.2042 31.0816Z" fill="#FFF803"/>
</svg>
