<svg width="43" height="42" viewBox="0 0 43 42" fill="none" xmlns="http://www.w3.org/2000/svg">
<path fill-rule="evenodd" clip-rule="evenodd" d="M17.3235 14.5833C17.3235 12.3223 19.0726 10.5729 21.3333 10.5729C23.594 10.5729 25.3431 12.3223 25.3431 14.5833C25.3431 16.8444 23.594 18.5937 21.3333 18.5937C19.0726 18.5937 17.3235 16.8444 17.3235 14.5833ZM23.7392 14.5833C23.7392 13.2082 22.7081 12.1771 21.3333 12.1771C19.9584 12.1771 18.9274 13.2082 18.9274 14.5833C18.9274 15.9584 19.9584 16.9896 21.3333 16.9896C22.7081 16.9896 23.7392 15.9584 23.7392 14.5833Z" fill="#FFF803"/>
<path d="M21.3333 21.2674C25.8577 21.2674 29.4786 24.8018 29.6162 29.2904L29.6202 29.5556V30.625C29.6202 31.068 29.2612 31.4271 28.8183 31.4271C28.4123 31.4271 28.0767 31.1253 28.0236 30.7338L28.0163 30.625V29.5556C28.0163 25.8277 25.0606 22.8715 21.3333 22.8715C19.4245 22.8715 17.805 23.5243 16.5762 24.7524C15.4407 25.9827 14.7366 27.6029 14.6577 29.2471L14.6503 29.5556V30.625C14.6503 31.068 14.2913 31.4271 13.8483 31.4271C13.4423 31.4271 13.1068 31.1253 13.0537 30.7338L13.0464 30.625V29.5556C13.0464 27.393 13.9243 25.2607 15.4198 23.6412C16.9757 22.0851 19.0046 21.2674 21.3333 21.2674Z" fill="#FFF803"/>
<path d="M30.3897 12.9467C30.7029 12.6335 31.2106 12.6335 31.5238 12.9467C31.8085 13.2315 31.8344 13.6771 31.6015 13.9911L31.5238 14.081L30.2189 15.3854H30.9567C31.6336 15.3854 31.9904 16.1608 31.5965 16.6721L31.5238 16.7546L28.8506 19.4283C28.5374 19.7415 28.0297 19.7415 27.7165 19.4283C27.4318 19.1435 27.4059 18.6979 27.6388 18.3839L27.7165 18.2939L29.0192 16.9896H28.2835C27.6067 16.9896 27.2499 16.2142 27.6438 15.7029L27.7165 15.6203L30.3897 12.9467Z" fill="#FFF803"/>
<path d="M11.1427 12.9467C11.4275 12.662 11.873 12.6361 12.1869 12.8691L12.2769 12.9467L14.9501 15.6203C15.4287 16.099 15.1328 16.8996 14.4928 16.9826L14.383 16.9896H13.6463L14.9501 18.2939C15.2348 18.5787 15.2607 19.0243 15.0277 19.3383L14.9501 19.4283C14.6654 19.713 14.2198 19.7389 13.9059 19.5059L13.8159 19.4283L11.1427 16.7546C10.6641 16.276 10.9601 15.4754 11.6 15.3924L11.7098 15.3854H12.4476L11.1427 14.081C10.858 13.7963 10.8321 13.3507 11.0651 13.0367L11.1427 12.9467Z" fill="#FFF803"/>
</svg>
