<svg width="43" height="42" viewBox="0 0 43 42" fill="none" xmlns="http://www.w3.org/2000/svg">
<path fill-rule="evenodd" clip-rule="evenodd" d="M17.3235 14.5834C17.3235 12.3224 19.0726 10.573 21.3333 10.573C23.594 10.573 25.3431 12.3224 25.3431 14.5834C25.3431 16.8444 23.594 18.5938 21.3333 18.5938C19.0726 18.5938 17.3235 16.8444 17.3235 14.5834ZM23.7392 14.5834C23.7392 13.2083 22.7081 12.1772 21.3333 12.1772C19.9584 12.1772 18.9274 13.2083 18.9274 14.5834C18.9274 15.9585 19.9584 16.9897 21.3333 16.9897C22.7081 16.9897 23.7392 15.9585 23.7392 14.5834Z" fill="white"/>
<path d="M21.3333 21.2673C25.8577 21.2673 29.4786 24.8018 29.6162 29.2904L29.6202 29.5555V30.625C29.6202 31.068 29.2612 31.4271 28.8183 31.4271C28.4123 31.4271 28.0767 31.1253 28.0236 30.7338L28.0163 30.625V29.5555C28.0163 25.8277 25.0606 22.8715 21.3333 22.8715C19.4245 22.8715 17.805 23.5242 16.5762 24.7523C15.4407 25.9827 14.7366 27.6029 14.6577 29.2471L14.6503 29.5555V30.625C14.6503 31.068 14.2913 31.4271 13.8483 31.4271C13.4423 31.4271 13.1068 31.1253 13.0537 30.7338L13.0464 30.625V29.5555C13.0464 27.393 13.9243 25.2606 15.4198 23.6411C16.9757 22.0851 19.0046 21.2673 21.3333 21.2673Z" fill="white"/>
<path d="M30.3897 12.9468C30.7029 12.6336 31.2106 12.6336 31.5238 12.9468C31.8085 13.2316 31.8344 13.6772 31.6015 13.9912L31.5238 14.0812L30.2189 15.3855H30.9567C31.6336 15.3855 31.9904 16.1609 31.5965 16.6722L31.5238 16.7548L28.8506 19.4284C28.5374 19.7416 28.0297 19.7416 27.7165 19.4284C27.4318 19.1436 27.4059 18.698 27.6388 18.384L27.7165 18.2941L29.0192 16.9897H28.2835C27.6067 16.9897 27.2499 16.2143 27.6438 15.703L27.7165 15.6205L30.3897 12.9468Z" fill="white"/>
<path d="M11.1427 12.9468C11.4275 12.6621 11.873 12.6362 12.1869 12.8692L12.2769 12.9468L14.9501 15.6205C15.4287 16.0991 15.1328 16.8997 14.4928 16.9827L14.383 16.9897H13.6463L14.9501 18.2941C15.2348 18.5788 15.2607 19.0244 15.0277 19.3384L14.9501 19.4284C14.6654 19.7131 14.2198 19.739 13.9059 19.506L13.8159 19.4284L11.1427 16.7548C10.6641 16.2761 10.9601 15.4755 11.6 15.3925L11.7098 15.3855H12.4476L11.1427 14.0812C10.858 13.7964 10.8321 13.3508 11.0651 13.0368L11.1427 12.9468Z" fill="white"/>
</svg>
