<svg width="20" height="15" viewBox="0 0 20 15" fill="none" xmlns="http://www.w3.org/2000/svg">
<g id="&#231;&#188;&#150;&#231;&#187;&#132; 2">
<path id="&#232;&#183;&#175;&#229;&#190;&#132;" fill-rule="evenodd" clip-rule="evenodd" d="M6.33794 1.40556L6.5 1.3999H8C9.15228 1.3999 10 2.24762 10 3.3999V11.3999C10 12.4731 9.13496 13.3999 8 13.3999H6.5C5.9217 13.3999 5.40269 13.1168 4.99289 12.707L4.86303 12.5472L3.459 10.3999L2 10.3999C0.900092 10.3999 0.0776943 9.6275 0.00520342 8.55509L0 8.3999V6.3999C0 5.24762 0.847715 4.3999 2 4.3999L3.458 4.39988L4.86795 2.2452C5.21908 1.7185 5.7488 1.44713 6.33794 1.40556ZM6.501 3.39988L4.83697 5.94715C4.65226 6.22964 4.33752 6.3999 4 6.3999H2V8.39988L4 8.3999C4.29533 8.3999 4.57322 8.53026 4.76182 8.75209L4.83697 8.85265L6.467 11.3469L6.5115 11.3877L6.51435 11.3955L6.502 11.3989L8 11.3999V3.3999L6.501 3.39988Z" fill="#FFF803"/>
<path id="&#232;&#183;&#175;&#229;&#190;&#132;_2" d="M15.6928 0.292893C16.0833 -0.0976311 16.7165 -0.0976311 17.107 0.292893C18.9358 2.1217 19.9999 4.69325 19.9999 7.40002C19.9999 10.0674 18.9695 12.5289 17.1281 14.4854C16.7496 14.8876 16.1167 14.9067 15.7145 14.5282C15.3124 14.1497 15.2932 13.5168 15.6717 13.1147C17.1727 11.5198 17.9999 9.54378 17.9999 7.40002C17.9999 5.22342 17.1463 3.16066 15.6928 1.70711C15.3023 1.31658 15.3023 0.683418 15.6928 0.292893Z" fill="white"/>
<path id="&#232;&#183;&#175;&#229;&#190;&#132;_3" d="M12.7929 3.09294C13.1834 2.70242 13.8166 2.70242 14.2071 3.09294C15.3291 4.21497 16 5.7803 16 7.40003C16 9.00433 15.3458 10.4684 14.2071 11.6071C13.8166 11.9977 13.1834 11.9977 12.7929 11.6071C12.4024 11.2166 12.4024 10.5834 12.7929 10.1929C13.5695 9.41627 14 8.45287 14 7.40003C14 6.31976 13.5459 5.26013 12.7929 4.50716C12.4024 4.11663 12.4024 3.48347 12.7929 3.09294Z" fill="white"/>
<path id="&#232;&#183;&#175;&#229;&#190;&#132;_4" d="M9.99307 5.89299C10.3836 5.50247 11.0168 5.50247 11.4073 5.89299C11.7999 6.28564 12.0002 6.83631 12.0002 7.4001C12.0002 7.96253 11.7988 8.41573 11.4073 8.8072C11.0168 9.19773 10.3836 9.19773 9.99307 8.8072C9.63259 8.44672 9.60486 7.87949 9.90988 7.4872L9.99307 7.39299L9.99898 7.38808L9.99809 7.35879L9.99126 7.31018C9.60255 6.91668 9.60255 6.28352 9.99307 5.89299Z" fill="#FFF803"/>
</g>
</svg>
