<svg width="42" height="42" viewBox="0 0 42 42" fill="none" xmlns="http://www.w3.org/2000/svg">
<path fill-rule="evenodd" clip-rule="evenodd" d="M22.6366 10.8078C22.3234 10.4946 21.8155 10.4946 21.5023 10.8078L20.4337 11.8764L20.4328 11.8772L20.432 11.8781L12.9557 19.3544C12.95 19.3599 12.9444 19.3656 12.9388 19.3713L10.8078 21.5022L10.7302 21.5922C10.4972 21.9062 10.5231 22.3518 10.8078 22.6366C11.1211 22.9498 11.6289 22.9498 11.9421 22.6366L13.0242 21.5545L14.5458 29.0729L14.5927 29.2572C14.9593 30.5292 16.114 31.427 17.4708 31.427H17.7917H24.2083H24.6361L24.8285 31.421C26.1647 31.3367 27.2708 30.3801 27.558 29.0878L28.9904 21.5692L30.0578 22.6366L30.1478 22.7142C30.4618 22.9472 30.9074 22.9213 31.1921 22.6366C31.5054 22.3233 31.5054 21.8155 31.1921 21.5022L29.0608 19.3709C29.0555 19.3654 29.0501 19.3601 29.0447 19.3548L22.1343 12.4444L22.6366 11.9421L22.7143 11.8522C22.9472 11.5382 22.9214 11.0926 22.6366 10.8078ZM25.0104 29.7727C25.4557 29.6505 25.8106 29.3161 25.9519 28.8907L25.9871 28.7638L27.6187 20.1975L21 13.5787L14.3854 20.1933L16.1149 28.7399C16.2187 29.2068 16.5527 29.5787 16.9896 29.7383V24.2083C16.9896 21.9473 18.739 20.1979 21 20.1979C23.261 20.1979 25.0104 21.9473 25.0104 24.2083V29.7727ZM18.5937 29.8229H23.4062V24.2083C23.4062 22.8905 22.4592 21.8886 21.17 21.8074L21 21.802C19.6249 21.802 18.5937 22.8332 18.5937 24.2083V29.8229Z" fill="white"/>
</svg>
