<svg width="42" height="42" viewBox="0 0 42 42" fill="none" xmlns="http://www.w3.org/2000/svg">
<path fill-rule="evenodd" clip-rule="evenodd" d="M22.6367 10.8079C22.3235 10.4947 21.8156 10.4947 21.5024 10.8079L20.4338 11.8765L20.4329 11.8774L20.4321 11.8782L12.9558 19.3545C12.9501 19.3601 12.9444 19.3657 12.9389 19.3714L10.8079 21.5024L10.7303 21.5923C10.4973 21.9063 10.5232 22.3519 10.8079 22.6367C11.1212 22.9499 11.629 22.9499 11.9422 22.6367L13.0243 21.5546L14.5459 29.0731L14.5928 29.2573C14.9594 30.5293 16.1141 31.4272 17.4709 31.4272H17.7917H24.2084H24.6362L24.8286 31.4211C26.1648 31.3368 27.2709 30.3802 27.5581 29.088L28.9905 21.5693L30.0579 22.6367L30.1479 22.7143C30.4619 22.9473 30.9075 22.9214 31.1922 22.6367C31.5055 22.3235 31.5055 21.8156 31.1922 21.5024L29.0609 19.371C29.0556 19.3656 29.0502 19.3602 29.0448 19.3549L22.1344 12.4445L22.6367 11.9422L22.7143 11.8523C22.9473 11.5383 22.9214 11.0927 22.6367 10.8079ZM25.0105 29.7728C25.4558 29.6506 25.8107 29.3162 25.952 28.8908L25.9872 28.7639L27.6188 20.1976L21.0001 13.5788L14.3855 20.1934L16.115 28.74C16.2188 29.2069 16.5528 29.5788 16.9897 29.7384V24.2084C16.9897 21.9474 18.739 20.198 21.0001 20.198C23.2611 20.198 25.0105 21.9474 25.0105 24.2084V29.7728ZM18.5938 29.823H23.4063V24.2084C23.4063 22.8906 22.4593 21.8887 21.1701 21.8075L21.0001 21.8022C19.625 21.8022 18.5938 22.8333 18.5938 24.2084V29.823Z" fill="#FFF803"/>
</svg>
