<svg width="42" height="42" viewBox="0 0 42 42" fill="none" xmlns="http://www.w3.org/2000/svg">
<path fill-rule="evenodd" clip-rule="evenodd" d="M16.7344 14.7437C16.7344 12.4402 18.6441 10.5729 21 10.5729C23.3559 10.5729 25.2656 12.4402 25.2656 14.7437C25.2656 17.0472 23.3559 18.9145 21 18.9145C18.6441 18.9145 16.7344 17.0472 16.7344 14.7437ZM23.1328 14.7437C23.1328 13.5919 22.1779 12.6583 21 12.6583C19.8221 12.6583 18.8672 13.5919 18.8672 14.7437C18.8672 15.8955 19.8221 16.8291 21 16.8291C22.1779 16.8291 23.1328 15.8955 23.1328 14.7437Z" fill="#FFF803"/>
<path d="M21 21C25.6584 21 29.3881 24.561 29.5272 29.0799L29.5313 29.3417V30.3844C29.5313 30.9602 29.0538 31.4271 28.4648 31.4271C27.918 31.4271 27.4672 31.0246 27.4056 30.506L27.3984 30.3844V29.3417C27.3984 25.851 24.57 23.0854 21 23.0854C19.1662 23.0854 17.619 23.695 16.4516 24.8354C15.3609 25.9907 14.6845 27.5124 14.6087 29.0527L14.6016 29.3417V30.3844C14.6016 30.9602 14.1241 31.4271 13.5352 31.4271C12.9883 31.4271 12.5375 31.0246 12.4759 30.506L12.4688 30.3844V29.3417C12.4688 27.1659 13.3706 25.0243 14.9139 23.3908C16.5162 21.8241 18.6077 21 21 21Z" fill="#FFF803"/>
</svg>
