<svg width="43" height="42" viewBox="0 0 43 42" fill="none" xmlns="http://www.w3.org/2000/svg">
<path fill-rule="evenodd" clip-rule="evenodd" d="M11.2397 17.257C11.2397 13.6057 14.257 10.573 17.8896 10.573C21.5223 10.573 24.5395 13.6057 24.5395 17.257C24.5395 19.9161 22.9787 22.3564 20.6511 23.3415C19.7606 23.7251 18.8091 23.9411 17.8896 23.9411C16.9702 23.9411 16.0186 23.7251 15.1328 23.3435C12.8005 22.3564 11.2397 19.9161 11.2397 17.257ZM22.9435 17.257C22.9435 14.4917 20.6408 12.1772 17.8896 12.1772C15.1384 12.1772 12.8357 14.4917 12.8357 17.257C12.8357 19.2798 14.0204 21.1321 15.7568 21.867C16.4574 22.1688 17.1979 22.3369 17.8896 22.3369C18.5813 22.3369 19.3218 22.1688 20.0271 21.865C21.7588 21.1321 22.9435 19.2798 22.9435 17.257Z" fill="white"/>
<path fill-rule="evenodd" clip-rule="evenodd" d="M11.2397 24.7432C11.2397 23.2532 12.9407 22.1893 15.318 21.8121C15.4665 21.7885 15.6186 21.8076 15.7568 21.8671C16.4574 22.1689 17.1979 22.337 17.8896 22.337C18.5813 22.337 19.3218 22.1689 20.0224 21.8671C20.1733 21.8021 20.3405 21.7855 20.5012 21.8195C22.9784 22.3437 24.5395 23.2851 24.5395 24.7432C24.5395 25.8116 23.5674 26.6714 22.0556 27.2226C20.5595 27.6737 19.3443 27.8981 17.8896 27.8981C16.2577 27.8981 14.7855 27.6565 13.7866 27.2081C12.2671 26.6527 11.2397 25.8113 11.2397 24.7432ZM15.3492 23.4329L15.0912 23.4856C13.6864 23.7898 12.8357 24.3594 12.8357 24.7432C12.8357 24.7715 12.9099 24.8903 13.1137 25.0572C13.3929 25.2859 13.8185 25.5128 14.3834 25.7214C15.2019 26.087 16.4626 26.2939 17.8896 26.2939C19.1658 26.2939 20.2372 26.0961 21.5536 25.7005C22.459 25.3696 22.9435 24.9411 22.9435 24.7432C22.9435 24.3982 22.1358 23.8782 20.6604 23.5026L20.4049 23.4406L20.3145 23.4775C19.6363 23.7332 18.9303 23.8912 18.2357 23.9311L17.8896 23.9411C17.0459 23.9411 16.1751 23.7593 15.3492 23.4329ZM15.3531 23.4321L15.3492 23.4329C15.2752 23.4036 15.2014 23.3731 15.1281 23.3416L15.3531 23.4321Z" fill="white"/>
<path fill-rule="evenodd" clip-rule="evenodd" d="M22.9435 24.7432L22.9516 24.6151C23.0738 23.6757 24.5395 23.7184 24.5395 24.7432V28.2724C24.5395 29.3879 23.6523 30.2325 22.1856 30.7755L21.9493 30.8587C20.7244 31.2281 19.3654 31.4273 17.8896 31.4273C16.3719 31.4273 14.8912 31.2146 13.7866 30.8443C12.2439 30.2804 11.2397 29.4206 11.2397 28.2724V24.7432L11.2478 24.6151C11.37 23.6757 12.8357 23.7184 12.8357 24.7432L12.8431 24.789C12.902 24.9854 13.3112 25.3332 14.0033 25.6167L14.1822 25.6861C15.4704 26.0745 16.6831 26.2939 17.8896 26.2939C19.3112 26.2939 20.5871 26.0887 21.6164 25.6805C22.4936 25.4401 22.9435 25.0421 22.9435 24.7432ZM13.0236 26.9302L12.8357 26.8329V28.2724C12.8357 28.5343 13.3564 28.9801 14.3116 29.3295C15.2224 29.6347 16.5346 29.8231 17.8896 29.8231C19.2106 29.8231 20.415 29.6466 21.4676 29.3295C22.4741 28.9923 22.9435 28.5749 22.9435 28.2724V26.896L22.7264 26.9942C22.5991 27.0471 22.4669 27.0952 22.3305 27.1383L22.1227 27.1991C20.9731 27.6613 19.5004 27.8981 17.8896 27.8981C16.5072 27.8981 15.1486 27.6523 13.6802 27.2081C13.4483 27.1234 13.2289 27.0306 13.0236 26.9302Z" fill="white"/>
<path d="M31.2267 14.64C31.6658 14.6017 32.0527 14.9283 32.0908 15.3696C32.129 15.8109 31.804 16.1998 31.365 16.2382C29.2939 16.4192 27.8379 17.1894 27.8379 17.6849C27.8379 17.8828 28.3224 18.3113 29.2074 18.6351C29.9595 18.8871 30.6027 19.0487 31.2884 19.1348C31.7257 19.1898 32.0359 19.5906 31.9813 20.0302C31.9266 20.4698 31.5278 20.7815 31.0905 20.7266C30.2867 20.6256 29.5466 20.4396 28.6824 20.1498C27.214 19.6131 26.2419 18.7533 26.2419 17.6849C26.2419 16.0359 28.4163 14.8857 31.2267 14.64Z" fill="white"/>
<path d="M26.1355 24.7432C26.1355 23.7184 27.6012 23.6757 27.7234 24.6151L27.7315 24.7432C27.7315 25.0003 28.1476 25.3542 29.2074 25.8004C29.9595 26.0524 30.6026 26.214 31.2884 26.3001C31.7257 26.3551 32.0359 26.756 31.9812 27.1955C31.9266 27.6351 31.5277 27.9469 31.0904 27.8919C30.2866 27.7909 29.5466 27.605 28.6481 27.3017C28.4257 27.2085 28.218 27.1151 28.0249 27.0203L27.7315 26.8693V28.2724C27.7315 28.7058 29.0147 29.3801 31.0262 29.6852L31.2926 29.7229C31.7296 29.7802 32.0377 30.1827 31.9807 30.622C31.9237 31.0612 31.5232 31.3709 31.0862 31.3136C28.2704 30.9444 26.2723 29.9583 26.1422 28.4322L26.1355 28.2724V24.7432Z" fill="white"/>
<path d="M26.1355 17.6849C26.1355 16.66 27.6012 16.6173 27.7234 17.5568L27.7315 17.6849C27.7315 17.9398 28.1374 18.2826 29.163 18.6588C29.5748 18.8361 29.9613 18.9395 30.5812 19.0369L31.0318 19.1017C31.1136 19.1126 31.199 19.1236 31.2884 19.1348C31.7257 19.1898 32.0359 19.5906 31.9812 20.0302C31.9266 20.4698 31.5277 20.7815 31.0904 20.7266L30.5306 20.6515L30.0516 20.5751C29.4585 20.47 29.0318 20.3471 28.5759 20.1498C28.3429 20.0646 28.1249 19.9754 27.9226 19.8813L27.7315 19.7885V21.1071C27.7315 21.3515 28.185 21.7561 29.1071 22.1285L29.3119 22.2077C29.5813 22.3431 29.866 22.4342 30.2922 22.5153L30.6405 22.5748L31.0537 22.6337C31.1286 22.6437 31.2068 22.6537 31.2884 22.664C31.7257 22.7189 32.0359 23.1198 31.9812 23.5594C31.9266 23.9989 31.5277 24.3107 31.0904 24.2558L30.5622 24.1852C30.481 24.1735 30.4029 24.1618 30.3278 24.1499L29.9103 24.0771C29.3948 23.9766 29.0323 23.8584 28.6823 23.6789C27.2167 23.1433 26.2373 22.3406 26.143 21.2772L26.1355 21.1071V17.6849Z" fill="white"/>
<path d="M26.1355 21.107C26.1355 20.0821 27.6012 20.0394 27.7234 20.9789L27.7315 21.107C27.7315 21.364 28.1476 21.718 29.2074 22.1641C29.9595 22.4161 30.6026 22.5777 31.2884 22.6639C31.7257 22.7188 32.0359 23.1197 31.9812 23.5593C31.9266 23.9988 31.5277 24.3106 31.0904 24.2557C30.2866 24.1547 29.5466 23.9687 28.6481 23.6655C28.4257 23.5723 28.218 23.4788 28.0249 23.384L27.7315 23.2331V24.6362C27.7315 24.8806 28.185 25.2852 29.1071 25.6576L29.3119 25.7368C29.5813 25.8722 29.866 25.9633 30.2922 26.0444L30.6405 26.1038L31.0537 26.1628C31.1286 26.1727 31.2068 26.1828 31.2884 26.1931C31.7257 26.248 32.0359 26.6489 31.9812 27.0884C31.9266 27.528 31.5277 27.8398 31.0904 27.7848L30.5622 27.7142C30.481 27.7025 30.4029 27.6908 30.3278 27.679L29.9103 27.6062C29.3948 27.5057 29.0323 27.3875 28.6823 27.208C27.2167 26.6723 26.2373 25.8696 26.143 24.8063L26.1355 24.6362V21.107Z" fill="white"/>
</svg>
