<svg width="43" height="42" viewBox="0 0 43 42" fill="none" xmlns="http://www.w3.org/2000/svg">
<path fill-rule="evenodd" clip-rule="evenodd" d="M11.2397 17.2569C11.2397 13.6056 14.257 10.5729 17.8896 10.5729C21.5223 10.5729 24.5395 13.6056 24.5395 17.2569C24.5395 19.9159 22.9787 22.3563 20.6511 23.3414C19.7606 23.725 18.8091 23.9409 17.8896 23.9409C16.9702 23.9409 16.0186 23.725 15.1328 23.3434C12.8005 22.3563 11.2397 19.9159 11.2397 17.2569ZM22.9435 17.2569C22.9435 14.4915 20.6408 12.177 17.8896 12.177C15.1384 12.177 12.8357 14.4915 12.8357 17.2569C12.8357 19.2797 14.0204 21.132 15.7568 21.8669C16.4574 22.1687 17.1979 22.3368 17.8896 22.3368C18.5813 22.3368 19.3218 22.1687 20.0271 21.8649C21.7588 21.132 22.9435 19.2797 22.9435 17.2569Z" fill="#FFF803"/>
<path fill-rule="evenodd" clip-rule="evenodd" d="M11.2397 24.743C11.2397 23.2529 12.9407 22.1891 15.318 21.8118C15.4665 21.7882 15.6186 21.8073 15.7568 21.8669C16.4574 22.1687 17.1979 22.3367 17.8896 22.3367C18.5813 22.3367 19.3218 22.1687 20.0224 21.8669C20.1733 21.8019 20.3405 21.7852 20.5012 21.8192C22.9784 22.3434 24.5395 23.2849 24.5395 24.743C24.5395 25.8113 23.5674 26.6712 22.0556 27.2223C20.5595 27.6735 19.3443 27.8978 17.8896 27.8978C16.2577 27.8978 14.7855 27.6563 13.7866 27.2079C12.2671 26.6525 11.2397 25.8111 11.2397 24.743ZM15.3492 23.4326L15.0912 23.4853C13.6864 23.7895 12.8357 24.3591 12.8357 24.743C12.8357 24.7712 12.9099 24.8901 13.1137 25.0569C13.3929 25.2856 13.8185 25.5126 14.3834 25.7211C15.2019 26.0868 16.4626 26.2937 17.8896 26.2937C19.1658 26.2937 20.2372 26.0959 21.5536 25.7003C22.459 25.3694 22.9435 24.9408 22.9435 24.743C22.9435 24.398 22.1358 23.878 20.6604 23.5024L20.4049 23.4404L20.3145 23.4772C19.6363 23.7329 18.9303 23.8909 18.2357 23.9309L17.8896 23.9409C17.0459 23.9409 16.1751 23.759 15.3492 23.4326ZM15.3531 23.4318L15.3492 23.4326C15.2752 23.4033 15.2014 23.3729 15.1281 23.3413L15.3531 23.4318Z" fill="#FFF803"/>
<path fill-rule="evenodd" clip-rule="evenodd" d="M22.9435 24.743L22.9516 24.6149C23.0738 23.6754 24.5395 23.7181 24.5395 24.743V28.2722C24.5395 29.3876 23.6523 30.2322 22.1856 30.7752L21.9493 30.8585C20.7244 31.2278 19.3654 31.427 17.8896 31.427C16.3719 31.427 14.8912 31.2144 13.7866 30.844C12.2439 30.2801 11.2397 29.4204 11.2397 28.2722V24.743L11.2478 24.6149C11.37 23.6754 12.8357 23.7181 12.8357 24.743L12.8431 24.7888C12.902 24.9851 13.3112 25.333 14.0033 25.6165L14.1822 25.6859C15.4704 26.0743 16.6831 26.2937 17.8896 26.2937C19.3112 26.2937 20.5871 26.0885 21.6164 25.6803C22.4936 25.4398 22.9435 25.0419 22.9435 24.743ZM13.0236 26.93L12.8357 26.8327V28.2722C12.8357 28.534 13.3564 28.9798 14.3116 29.3293C15.2224 29.6344 16.5346 29.8229 17.8896 29.8229C19.2106 29.8229 20.415 29.6463 21.4676 29.3293C22.4741 28.9921 22.9435 28.5747 22.9435 28.2722V26.8958L22.7264 26.9939C22.5991 27.0469 22.4669 27.095 22.3305 27.138L22.1227 27.1988C20.9731 27.661 19.5004 27.8979 17.8896 27.8979C16.5072 27.8979 15.1486 27.6521 13.6802 27.2079C13.4483 27.1232 13.2289 27.0304 13.0236 26.93Z" fill="#FFF803"/>
<path d="M31.2267 14.6398C31.6658 14.6014 32.0527 14.9281 32.0908 15.3694C32.129 15.8107 31.804 16.1995 31.365 16.2379C29.2939 16.4189 27.8379 17.1892 27.8379 17.6847C27.8379 17.8825 28.3224 18.311 29.2074 18.6348C29.9595 18.8868 30.6027 19.0484 31.2884 19.1346C31.7257 19.1895 32.0359 19.5904 31.9813 20.0299C31.9266 20.4695 31.5278 20.7813 31.0905 20.7264C30.2867 20.6254 29.5466 20.4394 28.6824 20.1495C27.214 19.6128 26.2419 18.7531 26.2419 17.6847C26.2419 16.0357 28.4163 14.8854 31.2267 14.6398Z" fill="#FFF803"/>
<path d="M26.1355 24.743C26.1355 23.7181 27.6012 23.6754 27.7234 24.6149L27.7315 24.743C27.7315 25 28.1476 25.354 29.2074 25.8001C29.9595 26.0521 30.6026 26.2137 31.2884 26.2999C31.7257 26.3548 32.0359 26.7557 31.9812 27.1953C31.9266 27.6348 31.5277 27.9466 31.0904 27.8917C30.2866 27.7907 29.5466 27.6047 28.6481 27.3014C28.4257 27.2083 28.218 27.1148 28.0249 27.02L27.7315 26.8691V28.2722C27.7315 28.7056 29.0147 29.3799 31.0262 29.685L31.2926 29.7227C31.7296 29.7799 32.0377 30.1825 31.9807 30.6217C31.9237 31.061 31.5232 31.3706 31.0862 31.3133C28.2704 30.9442 26.2723 29.9581 26.1422 28.432L26.1355 28.2722V24.743Z" fill="#FFF803"/>
<path d="M26.1355 17.6847C26.1355 16.6598 27.6012 16.6171 27.7234 17.5565L27.7315 17.6847C27.7315 17.9396 28.1374 18.2823 29.163 18.6585C29.5748 18.8359 29.9613 18.9392 30.5812 19.0366L31.0318 19.1014C31.1136 19.1123 31.199 19.1233 31.2884 19.1346C31.7257 19.1895 32.0359 19.5904 31.9812 20.0299C31.9266 20.4695 31.5277 20.7813 31.0904 20.7264L30.5306 20.6513L30.0516 20.5749C29.4585 20.4697 29.0318 20.3468 28.5759 20.1495C28.3429 20.0644 28.1249 19.9751 27.9226 19.8811L27.7315 19.7882V21.1069C27.7315 21.3513 28.185 21.7559 29.1071 22.1283L29.3119 22.2075C29.5813 22.3429 29.866 22.434 30.2922 22.515L30.6405 22.5745L31.0537 22.6335C31.1286 22.6434 31.2068 22.6535 31.2884 22.6637C31.7257 22.7187 32.0359 23.1196 31.9812 23.5591C31.9266 23.9987 31.5277 24.3105 31.0904 24.2555L30.5622 24.1849C30.481 24.1732 30.4029 24.1615 30.3278 24.1497L29.9103 24.0769C29.3948 23.9763 29.0323 23.8582 28.6823 23.6787C27.2167 23.143 26.2373 22.3403 26.143 21.2769L26.1355 21.1069V17.6847Z" fill="#FFF803"/>
<path d="M26.1355 21.1069C26.1355 20.082 27.6012 20.0393 27.7234 20.9788L27.7315 21.1069C27.7315 21.3639 28.1476 21.7179 29.2074 22.164C29.9595 22.416 30.6026 22.5776 31.2884 22.6638C31.7257 22.7187 32.0359 23.1196 31.9812 23.5592C31.9266 23.9987 31.5277 24.3105 31.0904 24.2556C30.2866 24.1546 29.5466 23.9686 28.6481 23.6653C28.4257 23.5722 28.218 23.4787 28.0249 23.3839L27.7315 23.2329V24.6361C27.7315 24.8805 28.185 25.2851 29.1071 25.6575L29.3119 25.7367C29.5813 25.8721 29.866 25.9632 30.2922 26.0442L30.6405 26.1037L31.0537 26.1627C31.1286 26.1726 31.2068 26.1827 31.2884 26.1929C31.7257 26.2479 32.0359 26.6488 31.9812 27.0883C31.9266 27.5279 31.5277 27.8397 31.0904 27.7847L30.5622 27.7141C30.481 27.7024 30.4029 27.6907 30.3278 27.6789L29.9103 27.6061C29.3948 27.5055 29.0323 27.3874 28.6823 27.2079C27.2167 26.6722 26.2373 25.8695 26.143 24.8061L26.1355 24.6361V21.1069Z" fill="#FFF803"/>
</svg>
