<svg width="16" height="14" viewBox="0 0 16 14" fill="none" xmlns="http://www.w3.org/2000/svg">
<path d="M14.1339 2.2223C14.7991 1.79474 15.3348 1.07386 15.5982 0.288353C14.933 0.715909 14.2679 1.00426 13.5357 1.14844C12.8661 0.432529 12 0 11.067 0C9.26786 0 7.79911 1.58097 7.79911 3.51989C7.79911 3.80327 7.79911 4.09162 7.86607 4.31037C4.42857 4.31037 2.07143 2.1527 0.473215 0C0.138393 0.50213 0.00446401 1.14844 0.00446401 1.79474C0.00446401 3.01278 0.607143 4.09162 1.47321 4.73793C0.937501 4.66832 0.40625 4.52415 0.00446401 4.31037C0.00446401 4.31037 0.00446401 4.31037 0.00446401 4.37997C0.00446401 6.10511 1.13839 7.53693 2.60714 7.82529C2.33929 7.89489 2.07143 7.96946 1.73661 7.96946C1.54018 7.96946 1.33929 7.96946 1.13839 7.89986C1.54018 9.33665 3.40179 10.9872 4.86607 10.9872C3.73214 11.9169 2.67857 12.7273 0.571429 12.7273C0.303571 12.7273 0.517857 12.7273 0 12.7273C1.46429 13.7315 3.20089 14 5 14C11.067 14 14.3348 8.61577 14.3348 3.94744C14.3348 3.80327 14.3348 3.66406 14.3348 3.51989C15 3.01278 15.5357 2.37145 16 1.65057C15.4018 1.93892 14.7991 2.1527 14.1339 2.2223Z" fill="black"/>
</svg>
