<svg width="10" height="10" viewBox="0 0 10 10" fill="none" xmlns="http://www.w3.org/2000/svg">
<path fill-rule="evenodd" clip-rule="evenodd" d="M6.12848 7.40926C5.84718 7.82967 5.44736 8.15735 4.97958 8.35084C4.5118 8.54434 3.99707 8.59496 3.50048 8.49632C3.00389 8.39768 2.54774 8.1542 2.18972 7.79666C1.8317 7.43913 1.58788 6.98361 1.4891 6.4877C1.39032 5.99179 1.44102 5.47777 1.63478 5.01063C1.82854 4.54349 2.15666 4.14422 2.57765 3.86331C2.99864 3.5824 3.49359 3.43247 3.99991 3.43247C4.67863 3.43324 5.32932 3.70283 5.80925 4.1821C6.28917 4.66137 6.55914 5.31117 6.55991 5.98895C6.55991 6.49458 6.40977 6.98885 6.12848 7.40926ZM7.19276 3.85849C6.77081 3.22787 6.17109 2.73637 5.46942 2.44612C4.76775 2.15588 3.99565 2.07994 3.25077 2.2279C2.50588 2.37587 1.82166 2.74109 1.28462 3.27739C0.74759 3.81369 0.381865 4.49697 0.233698 5.24083C0.0855311 5.9847 0.161576 6.75574 0.452216 7.45644C0.742857 8.15715 1.23504 8.75605 1.86652 9.17742C2.49801 9.59878 3.24043 9.82369 3.99991 9.82369C5.01799 9.82254 5.99404 9.41815 6.71393 8.69925C7.43382 7.98035 7.83876 7.00564 7.83991 5.98895C7.83991 5.23052 7.6147 4.48911 7.19276 3.85849ZM8.95812 1.30204C8.85264 1.14439 8.70271 1.02151 8.52729 0.948952C8.35187 0.876392 8.15885 0.857407 7.97263 0.894398C7.7864 0.931389 7.61535 1.02269 7.48109 1.15677C7.34683 1.29084 7.2554 1.46166 7.21836 1.64763C7.18132 1.8336 7.20033 2.02636 7.27299 2.20153C7.34565 2.37671 7.4687 2.52644 7.62657 2.63178C7.78444 2.73712 7.97004 2.79334 8.15991 2.79334C8.41452 2.79334 8.6587 2.69234 8.83874 2.51255C9.01877 2.33276 9.11991 2.08892 9.11991 1.83466C9.11991 1.64505 9.06361 1.4597 8.95812 1.30204Z" fill="black"/>
</svg>
