<svg width="16" height="16" viewBox="0 0 16 16" fill="none" xmlns="http://www.w3.org/2000/svg">
<path fill-rule="evenodd" clip-rule="evenodd" d="M1.46615 0C0.666667 0 0 0.666667 0 1.46615V14.5339C0 15.3333 0.666667 16 1.46615 16H14.5339C15.3333 16 16 15.3333 16 14.5339V1.46615C16 0.666667 15.3333 0 14.5339 0H1.46615ZM2 13.3333V6H4.66667V13.3333H2ZM2 3.93229C2 3.20052 2.53385 2.66667 3.33333 2.66667C4.13281 2.66667 4.66667 3.20052 4.66667 3.86719C4.66667 4.59896 4.13281 5.13281 3.33333 5.13281C2.53385 5.13281 2 4.59896 2 3.93229ZM11.3333 13.3333V9.33333C11.3333 8.26562 10.599 8 10.401 8C10.2005 8 9.33333 8.13281 9.33333 9.33333C9.33333 9.46615 9.33333 13.3333 9.33333 13.3333H6.66667V6H9.33333V7.06771C9.73438 6.46615 10.401 6 11.6667 6C12.9323 6 14 7 14 9.33333V13.3333H11.3333Z" fill="black"/>
</svg>
