<svg width="16" height="12" viewBox="0 0 16 12" fill="none" xmlns="http://www.w3.org/2000/svg">
<path fill-rule="evenodd" clip-rule="evenodd" d="M7.98005 12C10.4539 12 12.6484 11.76 13.9651 11.56C14.803 11.44 15.4813 10.8 15.6409 9.96C15.8005 9.04 15.9601 7.68 16 6C16 4.32 15.8005 2.96 15.6409 2.04C15.4813 1.2 14.803 0.56 13.9651 0.44C12.6085 0.24 10.4539 0 7.98005 0C5.50623 0 3.31172 0.24 1.99501 0.44C1.15711 0.56 0.478803 1.2 0.319202 2.04C0.159601 2.96 0 4.32 0 6C0 7.68 0.159601 9.04 0.319202 9.96C0.478803 10.8 1.15711 11.44 1.99501 11.56C3.35162 11.76 5.54613 12 7.98005 12ZM11.1714 5.99969L6.38342 3.19969V8.79969L11.1714 5.99969Z" fill="black"/>
</svg>
