<svg width="119" height="26" viewBox="0 0 119 26" fill="none" xmlns="http://www.w3.org/2000/svg">
<path fill-rule="evenodd" clip-rule="evenodd" d="M13 0C20.1797 0 26 5.8203 26 13C26 20.1797 20.1797 26 13 26C5.8203 26 0 20.1797 0 13C0 5.8203 5.8203 0 13 0ZM13 2.5C7.20101 2.5 2.5 7.20101 2.5 13C2.5 18.799 7.20101 23.5 13 23.5C18.799 23.5 23.5 18.799 23.5 13C23.5 7.20101 18.799 2.5 13 2.5Z" fill="#FFF803"/>
<path fill-rule="evenodd" clip-rule="evenodd" d="M13.128 5C16.9153 5 20.0976 7.54954 20.9999 11L17.2246 10.9998C16.4765 9.51818 14.923 8.5 13.128 8.5C10.6029 8.5 8.55599 10.5147 8.55599 13C8.55599 15.4853 10.6029 17.5 13.128 17.5C14.9226 17.5 16.4758 16.4823 17.2241 15.0012L20.9996 15.001C20.097 18.451 16.9149 21 13.128 21C8.63902 21 5 17.4183 5 13C5 8.58172 8.63902 5 13.128 5Z" fill="white"/>
<path d="M42.674 11.108C41.774 10.1 40.496 9.47 39.254 9.47C36.878 9.47 35.024 11.306 35.024 13.646C35.024 16.004 36.878 17.84 39.254 17.84C40.46 17.84 41.738 17.282 42.674 16.364L44.096 17.948C42.8 19.262 40.946 20.108 39.128 20.108C35.42 20.108 32.558 17.318 32.558 13.682C32.558 10.082 35.456 7.328 39.218 7.328C41.018 7.328 42.854 8.102 44.078 9.344L42.674 11.108ZM46.0812 7.4H48.4932V12.782H54.7752V7.4H57.1872V20H54.7752V14.888H48.4932V20H46.0812V7.4ZM70.9399 20H68.1859L66.0079 16.274C65.8639 16.292 65.7199 16.292 65.5579 16.292H62.7139V20H60.3019V7.4H65.5579C68.8159 7.4 70.6699 8.966 70.6699 11.738C70.6699 13.718 69.7879 15.14 68.1679 15.824L70.9399 20ZM62.7139 9.506V14.168H65.5579C67.3579 14.168 68.3659 13.394 68.3659 11.81C68.3659 10.262 67.3579 9.506 65.5579 9.506H62.7139ZM83.9442 7.4C87.7602 7.4 90.5142 10.01 90.5142 13.7C90.5142 17.372 87.7422 20 83.8542 20H78.7062V7.4H83.9442ZM83.9982 17.876C86.3202 17.876 88.0482 16.166 88.0482 13.718C88.0482 11.252 86.2662 9.524 83.9082 9.524H81.1182V17.876H83.9982ZM101.636 20L100.52 17.336H94.3637L93.2477 20H90.7457L96.2717 7.4H98.7737L104.228 20H101.636ZM95.2277 15.266H99.6557L97.4597 9.974L95.2277 15.266ZM111.167 7.328C114.965 7.328 117.881 10.082 117.881 13.7C117.881 17.318 114.965 20.108 111.167 20.108C107.369 20.108 104.453 17.318 104.453 13.7C104.453 10.064 107.369 7.328 111.167 7.328ZM111.203 9.488C108.863 9.488 106.919 11.324 106.919 13.7C106.919 16.076 108.881 17.948 111.203 17.948C113.507 17.948 115.415 16.076 115.415 13.7C115.415 11.324 113.507 9.488 111.203 9.488Z" fill="#FFF803"/>
</svg>
