<svg width="20" height="17" viewBox="0 0 20 17" fill="none" xmlns="http://www.w3.org/2000/svg">
<g id="&#231;&#188;&#150;&#231;&#187;&#132;">
<path id="&#229;&#189;&#162;&#231;&#138;&#182;" fill-rule="evenodd" clip-rule="evenodd" d="M19.4413 5.84964L14.9455 1.43235C14.2005 0.700468 12.9929 0.700468 12.2479 1.43235L10.8992 2.75755L8.65117 0.548913C7.9064 -0.182971 6.69874 -0.182971 5.9538 0.548913L0.55871 5.84964C-0.186237 6.58153 -0.186237 7.76814 0.55871 8.49998L8.65117 16.4511C9.3961 17.183 10.6039 17.183 11.3487 16.4511L18.0925 9.82518L19.4413 8.49998C20.1862 7.7681 20.1862 6.58149 19.4413 5.84964H19.4413ZM15.8447 10.2669L15.395 10.7086L14.4958 9.82516C14.2476 9.5812 13.845 9.5812 13.5967 9.82516C13.3483 10.0691 13.3483 10.4646 13.5967 10.7086L14.4958 11.5921L13.5967 12.4755L11.7984 10.7086C11.55 10.4646 11.1475 10.4646 10.8992 10.7086C10.6508 10.9526 10.6508 11.3481 10.8992 11.5921L12.6975 13.359L11.7984 14.2424L9.10085 11.5921C8.85247 11.3481 8.44999 11.3481 8.20161 11.5921C7.95324 11.836 7.95324 12.2316 8.20161 12.4755L10.8992 15.1259L10.4496 15.5676C10.2012 15.8116 9.79874 15.8116 9.55037 15.5676L1.45793 7.61654C1.20955 7.37257 1.20955 6.97706 1.45793 6.73308L6.85286 1.43237C7.10123 1.18842 7.50372 1.18842 7.75209 1.43237L10.0001 3.64101L9.10087 4.52445C8.35594 5.25633 8.35594 6.44296 9.10087 7.17484L10.0001 8.05824C10.7449 8.79015 11.9525 8.79015 12.6975 8.05824L13.5967 7.17484L15.8447 9.38344C16.0929 9.62737 16.0929 10.0229 15.8447 10.2669V10.2669ZM17.1933 8.94174L18.542 7.61654C18.7904 7.37257 18.7904 6.97708 18.542 6.73304L14.9454 3.19925L14.0462 2.31581C13.798 2.07188 13.3953 2.07188 13.1471 2.31581L10.8991 4.52445L10.0001 5.40792C9.75171 5.65186 9.75171 6.04741 10.0001 6.29134L10.8991 7.17482C11.1475 7.41878 11.55 7.41878 11.7984 7.17482L12.6974 6.29134L13.1471 5.84961C13.3955 5.60565 13.798 5.60569 14.0462 5.84964L15.8447 7.61654L17.1933 8.94174Z" fill="#FFF803"/>
</g>
</svg>
