<svg width="140" height="140" viewBox="0 0 140 140" fill="none" xmlns="http://www.w3.org/2000/svg">
<g clip-path="url(#clip0_52_2311)" filter="url(#filter0_d_52_2311)">
<rect x="20.5263" y="20.5263" width="98.9474" height="98.9474" rx="49.4737" fill="#101313" stroke="#A999FF" stroke-width="1.05263"/>
<g clip-path="url(#clip1_52_2311)">
<g clip-path="url(#clip2_52_2311)">
<path fill-rule="evenodd" clip-rule="evenodd" d="M44.7529 50L70.5948 74.8102L96.4367 50L70.5948 62.1389L44.7529 50Z" fill="url(#paint0_radial_52_2311)"/>
<mask id="mask0_52_2311" style="mask-type:luminance" maskUnits="userSpaceOnUse" x="44" y="50" width="53" height="25">
<path fill-rule="evenodd" clip-rule="evenodd" d="M44.7529 50L70.5948 74.8102L96.4367 50L70.5948 62.1389L44.7529 50Z" fill="white"/>
</mask>
<g mask="url(#mask0_52_2311)">
<g filter="url(#filter1_f_52_2311)">
<path fill-rule="evenodd" clip-rule="evenodd" d="M74.2121 57.236C72.2146 57.236 70.5957 58.8548 70.5957 60.8524C70.5957 62.8499 72.2146 64.4743 74.2121 64.4743C76.2097 64.4743 77.8341 62.8499 77.8341 60.8524C77.8341 58.8548 76.2097 57.236 74.2121 57.236Z" fill="#C46ECC"/>
</g>
</g>
</g>
<g clip-path="url(#clip3_52_2311)">
<path fill-rule="evenodd" clip-rule="evenodd" d="M70.5948 95.9985V74.4315L44.7529 50L70.5948 95.9985Z" fill="#CF6EFF"/>
<mask id="mask1_52_2311" style="mask-type:luminance" maskUnits="userSpaceOnUse" x="44" y="50" width="27" height="46">
<path fill-rule="evenodd" clip-rule="evenodd" d="M70.5948 95.9985V74.4315L44.7529 50L70.5948 95.9985Z" fill="white"/>
</mask>
<g mask="url(#mask1_52_2311)">
<g filter="url(#filter2_f_52_2311)">
<path fill-rule="evenodd" clip-rule="evenodd" d="M54.052 45.7849C51.4489 46.2549 50.8638 55.0599 52.7408 65.4558C54.6167 75.8462 58.2449 83.8961 60.848 83.4261C63.451 82.9561 64.0351 74.1458 62.1592 63.7553C60.2822 53.3594 56.655 45.315 54.052 45.7849Z" fill="#EDD2B2"/>
</g>
<g filter="url(#filter3_f_52_2311)">
<path fill-rule="evenodd" clip-rule="evenodd" d="M61.3271 76.8414C56.0741 75.4338 51.2725 76.3061 50.6078 78.7869C49.9431 81.2677 53.6666 84.4186 58.9197 85.8262C64.1727 87.2337 68.9729 86.3667 69.6376 83.8859C70.3023 81.4052 66.5802 78.2489 61.3271 76.8414Z" fill="#32F0FA"/>
</g>
<g filter="url(#filter4_f_52_2311)">
<path fill-rule="evenodd" clip-rule="evenodd" d="M70.0786 50C66.9396 50 64.3933 58.5609 64.3933 69.1249C64.3933 79.6833 66.9396 88.2497 70.0786 88.2497C73.2176 88.2497 75.764 79.6833 75.764 69.1249C75.764 58.5609 73.2176 50 70.0786 50Z" fill="#3E33FF"/>
</g>
</g>
</g>
<g clip-path="url(#clip4_52_2311)">
<path fill-rule="evenodd" clip-rule="evenodd" d="M70.5955 74.4315V95.9985L96.4373 50L70.5955 74.4315Z" fill="#D2994E"/>
<mask id="mask2_52_2311" style="mask-type:luminance" maskUnits="userSpaceOnUse" x="70" y="50" width="27" height="46">
<path fill-rule="evenodd" clip-rule="evenodd" d="M70.5955 74.4315V95.9985L96.4373 50L70.5955 74.4315Z" fill="white"/>
</mask>
<g mask="url(#mask2_52_2311)">
<g filter="url(#filter5_f_52_2311)">
<path fill-rule="evenodd" clip-rule="evenodd" d="M92.3449 51.3378C88.7095 50.5989 84.218 57.5987 82.3138 66.9668C80.4086 76.3403 81.8123 84.5328 85.4476 85.2717C89.0884 86.0117 93.5789 79.0173 95.4841 69.6437C97.3882 60.2756 95.9857 52.0778 92.3449 51.3378Z" fill="#85DCFF"/>
</g>
<g filter="url(#filter6_f_52_2311)">
<path fill-rule="evenodd" clip-rule="evenodd" d="M73.9437 82.2903C70.0981 86.1358 68.4528 90.7303 70.2689 92.5463C72.0849 94.3623 76.6755 92.7132 80.521 88.8676C84.3665 85.0221 86.0157 80.4316 84.1996 78.6155C82.3836 76.7995 77.7892 78.4448 73.9437 82.2903Z" fill="#C187FF"/>
</g>
<g filter="url(#filter7_f_52_2311)">
<path fill-rule="evenodd" clip-rule="evenodd" d="M72.144 60.3371C68.4343 60.3371 65.427 66.9334 65.427 75.0662C65.427 83.2046 68.4343 89.7954 72.144 89.7954C75.8592 89.7954 78.8665 83.2046 78.8665 75.0662C78.8665 66.9334 75.8592 60.3371 72.144 60.3371Z" fill="#3F21FF"/>
</g>
</g>
</g>
<path d="M45.0112 50.2584L70.5952 74.2948" stroke="url(#paint1_radial_52_2311)" stroke-width="0.823165"/>
<path d="M70.5952 95.741V74.2948" stroke="url(#paint2_radial_52_2311)" stroke-width="0.823165"/>
<path d="M70.5952 74.2948L96.1792 50.2584" stroke="url(#paint3_radial_52_2311)" stroke-width="0.823165"/>
<path d="M42.1696 81.3912C41.221 77.851 43.3116 73.6899 47.8315 69.7928C52.3189 65.9237 59.0599 62.4518 66.9942 60.3258C74.9285 58.1998 82.501 57.8364 88.3204 58.9438C94.1819 60.0592 98.0718 62.6178 99.0204 66.158C99.9697 69.701 97.8801 73.8617 93.3616 77.7577C88.8754 81.6258 82.1353 85.096 74.201 87.222C66.2667 89.348 58.6932 89.713 52.8726 88.6066C47.01 87.4923 43.1189 84.934 42.1696 81.3912Z" stroke="url(#paint4_linear_52_2311)" stroke-width="1.09755"/>
<g filter="url(#filter8_f_52_2311)">
<path fill-rule="evenodd" clip-rule="evenodd" d="M99.023 66.0225C97.5962 66.0225 96.4382 67.1804 96.4382 68.6072C96.4382 70.034 97.5962 71.192 99.023 71.192C100.45 71.192 101.608 70.034 101.608 68.6072C101.608 67.1804 100.45 66.0225 99.023 66.0225Z" fill="#3828DD"/>
<path d="M96.7126 68.6072C96.7126 67.3319 97.7477 66.2969 99.023 66.2969C100.298 66.2969 101.333 67.3319 101.333 68.6072C101.333 69.8825 100.298 70.9176 99.023 70.9176C97.7477 70.9176 96.7126 69.8825 96.7126 68.6072Z" stroke="#9EA9FF" stroke-width="0.548777"/>
</g>
<g clip-path="url(#clip5_52_2311)">
<path fill-rule="evenodd" clip-rule="evenodd" d="M42.9433 76.8764C39.6616 76.8764 37 79.538 37 82.8197C37 86.1013 39.6616 88.7629 42.9433 88.7629C46.2249 88.7629 48.8865 86.1013 48.8865 82.8197C48.8865 79.538 46.2249 76.8764 42.9433 76.8764Z" fill="url(#paint5_radial_52_2311)"/>
<mask id="mask3_52_2311" style="mask-type:luminance" maskUnits="userSpaceOnUse" x="37" y="76" width="12" height="13">
<path fill-rule="evenodd" clip-rule="evenodd" d="M42.9433 76.8764C39.6616 76.8764 37 79.538 37 82.8197C37 86.1013 39.6616 88.7629 42.9433 88.7629C46.2249 88.7629 48.8865 86.1013 48.8865 82.8197C48.8865 79.538 46.2249 76.8764 42.9433 76.8764Z" fill="white"/>
</mask>
<g mask="url(#mask3_52_2311)">
<g filter="url(#filter9_f_52_2311)">
<path fill-rule="evenodd" clip-rule="evenodd" d="M45.269 84.6292C43.5569 84.6292 42.1685 86.0176 42.1685 87.7298C42.1685 89.442 43.5569 90.8304 45.269 90.8304C46.9812 90.8304 48.3696 89.442 48.3696 87.7298C48.3696 86.0176 46.9812 84.6292 45.269 84.6292Z" fill="white"/>
</g>
<g filter="url(#filter10_f_52_2311)">
<path fill-rule="evenodd" clip-rule="evenodd" d="M38.5501 73.7753C36.8379 73.7753 35.4495 75.1637 35.4495 76.8759C35.4495 78.5881 36.8379 79.9765 38.5501 79.9765C40.2622 79.9765 41.6506 78.5881 41.6506 76.8759C41.6506 75.1637 40.2622 73.7753 38.5501 73.7753Z" fill="white"/>
</g>
</g>
</g>
</g>
</g>
<defs>
<filter id="filter0_d_52_2311" x="0" y="0" width="140" height="140" filterUnits="userSpaceOnUse" color-interpolation-filters="sRGB">
<feFlood flood-opacity="0" result="BackgroundImageFix"/>
<feColorMatrix in="SourceAlpha" type="matrix" values="0 0 0 0 0 0 0 0 0 0 0 0 0 0 0 0 0 0 127 0" result="hardAlpha"/>
<feOffset/>
<feGaussianBlur stdDeviation="10"/>
<feColorMatrix type="matrix" values="0 0 0 0 0.756662 0 0 0 0 0.710312 0 0 0 0 1 0 0 0 1 0"/>
<feBlend mode="normal" in2="BackgroundImageFix" result="effect1_dropShadow_52_2311"/>
<feBlend mode="normal" in="SourceGraphic" in2="effect1_dropShadow_52_2311" result="shape"/>
</filter>
<filter id="filter1_f_52_2311" x="66.8664" y="53.5066" width="14.6969" height="14.697" filterUnits="userSpaceOnUse" color-interpolation-filters="sRGB">
<feFlood flood-opacity="0" result="BackgroundImageFix"/>
<feBlend mode="normal" in="SourceGraphic" in2="BackgroundImageFix" result="shape"/>
<feGaussianBlur stdDeviation="1.86466" result="effect1_foregroundBlur_52_2311"/>
</filter>
<filter id="filter2_f_52_2311" x="43.4371" y="37.5608" width="28.0252" height="54.0893" filterUnits="userSpaceOnUse" color-interpolation-filters="sRGB">
<feFlood flood-opacity="0" result="BackgroundImageFix"/>
<feBlend mode="normal" in="SourceGraphic" in2="BackgroundImageFix" result="shape"/>
<feGaussianBlur stdDeviation="4.10226" result="effect1_foregroundBlur_52_2311"/>
</filter>
<filter id="filter3_f_52_2311" x="40.0889" y="65.7263" width="40.0676" height="31.2163" filterUnits="userSpaceOnUse" color-interpolation-filters="sRGB">
<feFlood flood-opacity="0" result="BackgroundImageFix"/>
<feBlend mode="normal" in="SourceGraphic" in2="BackgroundImageFix" result="shape"/>
<feGaussianBlur stdDeviation="5.22105" result="effect1_foregroundBlur_52_2311"/>
</filter>
<filter id="filter4_f_52_2311" x="52.4595" y="38.0662" width="35.2383" height="62.1174" filterUnits="userSpaceOnUse" color-interpolation-filters="sRGB">
<feFlood flood-opacity="0" result="BackgroundImageFix"/>
<feBlend mode="normal" in="SourceGraphic" in2="BackgroundImageFix" result="shape"/>
<feGaussianBlur stdDeviation="5.96692" result="effect1_foregroundBlur_52_2311"/>
</filter>
<filter id="filter5_f_52_2311" x="71.7671" y="41.588" width="34.2631" height="53.4336" filterUnits="userSpaceOnUse" color-interpolation-filters="sRGB">
<feFlood flood-opacity="0" result="BackgroundImageFix"/>
<feBlend mode="normal" in="SourceGraphic" in2="BackgroundImageFix" result="shape"/>
<feGaussianBlur stdDeviation="4.84812" result="effect1_foregroundBlur_52_2311"/>
</filter>
<filter id="filter6_f_52_2311" x="57.596" y="65.9425" width="39.2759" height="39.2761" filterUnits="userSpaceOnUse" color-interpolation-filters="sRGB">
<feFlood flood-opacity="0" result="BackgroundImageFix"/>
<feBlend mode="normal" in="SourceGraphic" in2="BackgroundImageFix" result="shape"/>
<feGaussianBlur stdDeviation="5.96692" result="effect1_foregroundBlur_52_2311"/>
</filter>
<filter id="filter7_f_52_2311" x="53.4932" y="48.4032" width="37.3071" height="53.326" filterUnits="userSpaceOnUse" color-interpolation-filters="sRGB">
<feFlood flood-opacity="0" result="BackgroundImageFix"/>
<feBlend mode="normal" in="SourceGraphic" in2="BackgroundImageFix" result="shape"/>
<feGaussianBlur stdDeviation="5.96692" result="effect1_foregroundBlur_52_2311"/>
</filter>
<filter id="filter8_f_52_2311" x="94.9465" y="64.5307" width="8.15289" height="8.15293" filterUnits="userSpaceOnUse" color-interpolation-filters="sRGB">
<feFlood flood-opacity="0" result="BackgroundImageFix"/>
<feBlend mode="normal" in="SourceGraphic" in2="BackgroundImageFix" result="shape"/>
<feGaussianBlur stdDeviation="0.745865" result="effect1_foregroundBlur_52_2311"/>
</filter>
<filter id="filter9_f_52_2311" x="36.9474" y="79.4082" width="16.6433" height="16.6433" filterUnits="userSpaceOnUse" color-interpolation-filters="sRGB">
<feFlood flood-opacity="0" result="BackgroundImageFix"/>
<feBlend mode="normal" in="SourceGraphic" in2="BackgroundImageFix" result="shape"/>
<feGaussianBlur stdDeviation="2.61053" result="effect1_foregroundBlur_52_2311"/>
</filter>
<filter id="filter10_f_52_2311" x="30.2284" y="68.5542" width="16.6433" height="16.6433" filterUnits="userSpaceOnUse" color-interpolation-filters="sRGB">
<feFlood flood-opacity="0" result="BackgroundImageFix"/>
<feBlend mode="normal" in="SourceGraphic" in2="BackgroundImageFix" result="shape"/>
<feGaussianBlur stdDeviation="2.61053" result="effect1_foregroundBlur_52_2311"/>
</filter>
<radialGradient id="paint0_radial_52_2311" cx="0" cy="0" r="1" gradientUnits="userSpaceOnUse" gradientTransform="translate(70.5948 62.4051) rotate(90) scale(12.4051 25.8419)">
<stop stop-color="#6D53FC"/>
<stop offset="1" stop-color="white"/>
</radialGradient>
<radialGradient id="paint1_radial_52_2311" cx="0" cy="0" r="1" gradientUnits="userSpaceOnUse" gradientTransform="translate(57.8032 62.2766) rotate(90) scale(12.0182 12.792)">
<stop stop-color="white"/>
<stop offset="1" stop-color="white" stop-opacity="0.01"/>
</radialGradient>
<radialGradient id="paint2_radial_52_2311" cx="0" cy="0" r="1" gradientUnits="userSpaceOnUse" gradientTransform="translate(70.8696 85.0179) rotate(90) scale(10.7231 0.274388)">
<stop stop-color="white"/>
<stop offset="1" stop-color="white" stop-opacity="0.01"/>
</radialGradient>
<radialGradient id="paint3_radial_52_2311" cx="0" cy="0" r="1" gradientUnits="userSpaceOnUse" gradientTransform="translate(83.3872 62.2766) rotate(90) scale(12.0182 12.792)">
<stop stop-color="white"/>
<stop offset="1" stop-color="white" stop-opacity="0.01"/>
</radialGradient>
<linearGradient id="paint4_linear_52_2311" x1="100.187" y1="81.5085" x2="94.1461" y2="56.5035" gradientUnits="userSpaceOnUse">
<stop stop-color="white"/>
<stop offset="1" stop-color="white" stop-opacity="0.01"/>
</linearGradient>
<radialGradient id="paint5_radial_52_2311" cx="0" cy="0" r="1" gradientUnits="userSpaceOnUse" gradientTransform="translate(42.9432 82.8197) rotate(90) scale(8.91832 15.2503)">
<stop stop-color="#584DFF"/>
<stop offset="1" stop-color="#F7F5FF"/>
</radialGradient>
<clipPath id="clip0_52_2311">
<rect width="100" height="100" fill="white" transform="translate(20 20)"/>
</clipPath>
<clipPath id="clip1_52_2311">
<rect width="66" height="46" fill="white" transform="translate(37 50)"/>
</clipPath>
<clipPath id="clip2_52_2311">
<rect width="51.6838" height="24.8102" fill="white" transform="translate(44.7529 50)"/>
</clipPath>
<clipPath id="clip3_52_2311">
<rect width="25.8419" height="45.9985" fill="white" transform="translate(44.7529 50)"/>
</clipPath>
<clipPath id="clip4_52_2311">
<rect width="25.8419" height="45.9985" fill="white" transform="translate(70.5955 50)"/>
</clipPath>
<clipPath id="clip5_52_2311">
<rect width="11.8865" height="11.8865" fill="white" transform="translate(37 76.8764)"/>
</clipPath>
</defs>
</svg>
