<svg width="140" height="140" viewBox="0 0 140 140" fill="none" xmlns="http://www.w3.org/2000/svg">
<g clip-path="url(#clip0_52_2357)" filter="url(#filter0_d_52_2357)">
<rect x="20.5263" y="20.5263" width="98.9474" height="98.9474" rx="49.4737" fill="#101313" stroke="#FF8C00" stroke-width="1.05263"/>
<g clip-path="url(#clip1_52_2357)">
<path fill-rule="evenodd" clip-rule="evenodd" d="M45.2959 50L71.2818 74.9485L97.2677 50L71.2818 62.2066L45.2959 50Z" fill="url(#paint0_radial_52_2357)"/>
<g clip-path="url(#clip2_52_2357)">
<path fill-rule="evenodd" clip-rule="evenodd" d="M45.2959 50L71.2818 74.9485L97.2677 50L71.2818 62.2066L45.2959 50Z" fill="url(#paint1_radial_52_2357)"/>
<mask id="mask0_52_2357" style="mask-type:luminance" maskUnits="userSpaceOnUse" x="45" y="50" width="53" height="25">
<path fill-rule="evenodd" clip-rule="evenodd" d="M45.2959 50L71.2818 74.9485L97.2677 50L71.2818 62.2066L45.2959 50Z" fill="white"/>
</mask>
<g mask="url(#mask0_52_2357)">
<g filter="url(#filter1_f_52_2357)">
<path fill-rule="evenodd" clip-rule="evenodd" d="M74.9193 57.2763C72.9106 57.2763 71.2827 58.9042 71.2827 60.9129C71.2827 62.9216 72.9106 64.555 74.9193 64.555C76.928 64.555 78.5614 62.9216 78.5614 60.9129C78.5614 58.9042 76.928 57.2763 74.9193 57.2763Z" fill="#A65739"/>
</g>
</g>
</g>
<path fill-rule="evenodd" clip-rule="evenodd" d="M71.2818 96.2548V74.5677L45.2959 50L71.2818 96.2548Z" fill="#D49A4E"/>
<g clip-path="url(#clip3_52_2357)">
<path fill-rule="evenodd" clip-rule="evenodd" d="M71.2818 96.2548V74.5677L45.2959 50L71.2818 96.2548Z" fill="#D49A4E"/>
<mask id="mask1_52_2357" style="mask-type:luminance" maskUnits="userSpaceOnUse" x="45" y="50" width="27" height="47">
<path fill-rule="evenodd" clip-rule="evenodd" d="M71.2818 96.2548V74.5677L45.2959 50L71.2818 96.2548Z" fill="white"/>
</mask>
<g mask="url(#mask1_52_2357)">
<g filter="url(#filter2_f_52_2357)">
<path fill-rule="evenodd" clip-rule="evenodd" d="M55.6885 45.8421C51.9581 45.8421 48.9341 53.2864 48.9341 62.4744C48.9341 71.657 51.9581 79.1067 55.6885 79.1067C59.4245 79.1067 62.4485 71.657 62.4485 62.4744C62.4485 53.2864 59.4245 45.8421 55.6885 45.8421Z" fill="#FA7932"/>
</g>
<g filter="url(#filter3_f_52_2357)">
<path fill-rule="evenodd" clip-rule="evenodd" d="M61.9624 76.991C56.6801 75.5756 51.8518 76.4528 51.1834 78.9474C50.5149 81.4419 54.2592 84.6104 59.5416 86.0258C64.8239 87.4412 69.6508 86.5694 70.3192 84.0748C70.9876 81.5802 67.2448 78.4064 61.9624 76.991Z" fill="#32F0FA" fill-opacity="0.39"/>
</g>
<g filter="url(#filter4_f_52_2357)">
<path fill-rule="evenodd" clip-rule="evenodd" d="M71.2835 65.0723C68.4139 65.0723 66.0852 69.4925 66.0852 74.9446C66.0852 80.4023 68.4139 84.8225 71.2835 84.8225C74.153 84.8225 76.4818 80.4023 76.4818 74.9446C76.4818 69.4925 74.153 65.0723 71.2835 65.0723Z" fill="#080502"/>
</g>
</g>
</g>
<path fill-rule="evenodd" clip-rule="evenodd" d="M71.2827 74.5677V96.2548L97.2686 50L71.2827 74.5677Z" fill="#D2994E"/>
<g clip-path="url(#clip4_52_2357)">
<path fill-rule="evenodd" clip-rule="evenodd" d="M71.2827 74.5677V96.2548L97.2686 50L71.2827 74.5677Z" fill="#D2994E"/>
<mask id="mask2_52_2357" style="mask-type:luminance" maskUnits="userSpaceOnUse" x="71" y="50" width="27" height="47">
<path fill-rule="evenodd" clip-rule="evenodd" d="M71.2827 74.5677V96.2548L97.2686 50L71.2827 74.5677Z" fill="white"/>
</mask>
<g mask="url(#mask2_52_2357)">
<g filter="url(#filter5_f_52_2357)">
<path fill-rule="evenodd" clip-rule="evenodd" d="M93.1533 51.3452C89.4976 50.6022 84.9811 57.641 83.0663 67.0614C81.1505 76.4871 82.562 84.7253 86.2176 85.4683C89.8787 86.2124 94.3942 79.179 96.31 69.7532C98.2247 60.3329 96.8144 52.0894 93.1533 51.3452Z" fill="#21C0FF"/>
</g>
<g filter="url(#filter6_f_52_2357)">
<path fill-rule="evenodd" clip-rule="evenodd" d="M74.6497 82.4703C70.7828 86.3372 69.1283 90.9573 70.9545 92.7834C72.7806 94.6096 77.3968 92.9512 81.2637 89.0843C85.1307 85.2173 86.789 80.6012 84.9629 78.775C83.1367 76.9489 78.5167 78.6033 74.6497 82.4703Z" fill="#9A5AA2"/>
</g>
<g filter="url(#filter7_f_52_2357)">
<path fill-rule="evenodd" clip-rule="evenodd" d="M71.2837 65.0723C68.4142 65.0723 66.0854 69.4925 66.0854 74.9446C66.0854 80.4023 68.4142 84.8225 71.2837 84.8225C74.1533 84.8225 76.482 80.4023 76.482 74.9446C76.482 69.4925 74.1533 65.0723 71.2837 65.0723Z" fill="#0D0804"/>
</g>
</g>
</g>
<path d="M45.5559 50.2599L71.2825 74.4302" stroke="url(#paint2_radial_52_2357)" stroke-width="0.827752"/>
<path d="M71.2825 95.9959V74.4302" stroke="url(#paint3_radial_52_2357)" stroke-width="0.827752"/>
<path d="M71.2825 74.4302L97.009 50.2599" stroke="url(#paint4_radial_52_2357)" stroke-width="0.827752"/>
<path d="M42.6983 81.5661C41.7444 78.0062 43.8467 73.822 48.3918 69.9031C52.9042 66.0124 59.6828 62.5212 67.6613 60.3834C75.6398 58.2456 83.2544 57.8801 89.1063 58.9937C95.0004 60.1153 98.912 62.6881 99.8659 66.2481C100.821 69.8108 98.7193 73.9947 94.1756 77.9124C89.6644 81.802 82.8868 85.2916 74.9082 87.4294C66.9297 89.5673 59.314 89.9344 53.461 88.8218C47.5657 87.7012 43.6529 85.1287 42.6983 81.5661Z" stroke="url(#paint5_linear_52_2357)" stroke-width="1.10367"/>
<path fill-rule="evenodd" clip-rule="evenodd" d="M99.8687 66.1118C98.4339 66.1118 97.2695 67.2761 97.2695 68.7109C97.2695 70.1457 98.4339 71.3101 99.8687 71.3101C101.303 71.3101 102.468 70.1457 102.468 68.7109C102.468 67.2761 101.303 66.1118 99.8687 66.1118Z" fill="url(#paint6_radial_52_2357)"/>
<path d="M43.4764 76.7762C40.0383 76.7762 37.25 79.5645 37.25 83.0026C37.25 86.4406 40.0383 89.2289 43.4764 89.2289C46.9144 89.2289 49.7027 86.4406 49.7027 83.0026C49.7027 79.5645 46.9144 76.7762 43.4764 76.7762Z" fill="url(#paint7_radial_52_2357)" stroke="#FFF8EB" stroke-width="0.5"/>
</g>
</g>
<defs>
<filter id="filter0_d_52_2357" x="0" y="0" width="140" height="140" filterUnits="userSpaceOnUse" color-interpolation-filters="sRGB">
<feFlood flood-opacity="0" result="BackgroundImageFix"/>
<feColorMatrix in="SourceAlpha" type="matrix" values="0 0 0 0 0 0 0 0 0 0 0 0 0 0 0 0 0 0 127 0" result="hardAlpha"/>
<feOffset/>
<feGaussianBlur stdDeviation="10"/>
<feColorMatrix type="matrix" values="0 0 0 0 1 0 0 0 0 0.726227 0 0 0 0 0.414105 0 0 0 1 0"/>
<feBlend mode="normal" in2="BackgroundImageFix" result="effect1_dropShadow_52_2357"/>
<feBlend mode="normal" in="SourceGraphic" in2="effect1_dropShadow_52_2357" result="shape"/>
</filter>
<filter id="filter1_f_52_2357" x="67.5326" y="53.5262" width="14.779" height="14.7789" filterUnits="userSpaceOnUse" color-interpolation-filters="sRGB">
<feFlood flood-opacity="0" result="BackgroundImageFix"/>
<feBlend mode="normal" in="SourceGraphic" in2="BackgroundImageFix" result="shape"/>
<feGaussianBlur stdDeviation="1.87505" result="effect1_foregroundBlur_52_2357"/>
</filter>
<filter id="filter2_f_52_2357" x="40.6838" y="37.5919" width="30.0149" height="49.7651" filterUnits="userSpaceOnUse" color-interpolation-filters="sRGB">
<feFlood flood-opacity="0" result="BackgroundImageFix"/>
<feBlend mode="normal" in="SourceGraphic" in2="BackgroundImageFix" result="shape"/>
<feGaussianBlur stdDeviation="4.12512" result="effect1_foregroundBlur_52_2357"/>
</filter>
<filter id="filter3_f_52_2357" x="40.6059" y="65.8139" width="40.2909" height="31.3903" filterUnits="userSpaceOnUse" color-interpolation-filters="sRGB">
<feFlood flood-opacity="0" result="BackgroundImageFix"/>
<feBlend mode="normal" in="SourceGraphic" in2="BackgroundImageFix" result="shape"/>
<feGaussianBlur stdDeviation="5.25015" result="effect1_foregroundBlur_52_2357"/>
</filter>
<filter id="filter4_f_52_2357" x="54.0849" y="53.072" width="34.3972" height="43.7509" filterUnits="userSpaceOnUse" color-interpolation-filters="sRGB">
<feFlood flood-opacity="0" result="BackgroundImageFix"/>
<feBlend mode="normal" in="SourceGraphic" in2="BackgroundImageFix" result="shape"/>
<feGaussianBlur stdDeviation="6.00017" result="effect1_foregroundBlur_52_2357"/>
</filter>
<filter id="filter5_f_52_2357" x="72.4609" y="41.5411" width="34.4539" height="53.7314" filterUnits="userSpaceOnUse" color-interpolation-filters="sRGB">
<feFlood flood-opacity="0" result="BackgroundImageFix"/>
<feBlend mode="normal" in="SourceGraphic" in2="BackgroundImageFix" result="shape"/>
<feGaussianBlur stdDeviation="4.87514" result="effect1_foregroundBlur_52_2357"/>
</filter>
<filter id="filter6_f_52_2357" x="58.2108" y="66.0314" width="39.4948" height="39.495" filterUnits="userSpaceOnUse" color-interpolation-filters="sRGB">
<feFlood flood-opacity="0" result="BackgroundImageFix"/>
<feBlend mode="normal" in="SourceGraphic" in2="BackgroundImageFix" result="shape"/>
<feGaussianBlur stdDeviation="6.00017" result="effect1_foregroundBlur_52_2357"/>
</filter>
<filter id="filter7_f_52_2357" x="54.0851" y="53.072" width="34.3972" height="43.7509" filterUnits="userSpaceOnUse" color-interpolation-filters="sRGB">
<feFlood flood-opacity="0" result="BackgroundImageFix"/>
<feBlend mode="normal" in="SourceGraphic" in2="BackgroundImageFix" result="shape"/>
<feGaussianBlur stdDeviation="6.00017" result="effect1_foregroundBlur_52_2357"/>
</filter>
<radialGradient id="paint0_radial_52_2357" cx="0" cy="0" r="1" gradientUnits="userSpaceOnUse" gradientTransform="translate(71.2818 62.4742) rotate(90) scale(12.4742 25.9859)">
<stop stop-color="#856029"/>
<stop offset="0.9737" stop-color="#FFF0E8"/>
</radialGradient>
<radialGradient id="paint1_radial_52_2357" cx="0" cy="0" r="1" gradientUnits="userSpaceOnUse" gradientTransform="translate(71.2818 62.4742) rotate(90) scale(12.4742 25.9859)">
<stop stop-color="#856029"/>
<stop offset="0.9737" stop-color="#FFF0E8"/>
</radialGradient>
<radialGradient id="paint2_radial_52_2357" cx="0" cy="0" r="1" gradientUnits="userSpaceOnUse" gradientTransform="translate(58.4192 62.3451) rotate(90) scale(12.0852 12.8633)">
<stop stop-color="white"/>
<stop offset="1" stop-color="white" stop-opacity="0.01"/>
</radialGradient>
<radialGradient id="paint3_radial_52_2357" cx="0" cy="0" r="1" gradientUnits="userSpaceOnUse" gradientTransform="translate(71.5584 85.2131) rotate(90) scale(10.7829 0.275918)">
<stop stop-color="white"/>
<stop offset="1" stop-color="white" stop-opacity="0.01"/>
</radialGradient>
<radialGradient id="paint4_radial_52_2357" cx="0" cy="0" r="1" gradientUnits="userSpaceOnUse" gradientTransform="translate(84.1457 62.3451) rotate(90) scale(12.0852 12.8633)">
<stop stop-color="white"/>
<stop offset="1" stop-color="white" stop-opacity="0.01"/>
</radialGradient>
<linearGradient id="paint5_linear_52_2357" x1="101.039" y1="81.6841" x2="94.9645" y2="56.5398" gradientUnits="userSpaceOnUse">
<stop stop-color="white"/>
<stop offset="1" stop-color="white" stop-opacity="0.01"/>
</linearGradient>
<radialGradient id="paint6_radial_52_2357" cx="0" cy="0" r="1" gradientUnits="userSpaceOnUse" gradientTransform="translate(99.8687 68.7109) rotate(90) scale(2.59914 4.83441)">
<stop/>
<stop offset="1" stop-color="#C2C2C2"/>
</radialGradient>
<radialGradient id="paint7_radial_52_2357" cx="0" cy="0" r="1" gradientUnits="userSpaceOnUse" gradientTransform="translate(43.4764 83.0026) rotate(90) scale(8.96803 15.3353)">
<stop/>
<stop offset="1" stop-color="#FFF4D6"/>
</radialGradient>
<clipPath id="clip0_52_2357">
<rect width="100" height="100" fill="white" transform="translate(20 20)"/>
</clipPath>
<clipPath id="clip1_52_2357">
<rect width="66.6653" height="46.2548" fill="white" transform="translate(37.5 50)"/>
</clipPath>
<clipPath id="clip2_52_2357">
<rect width="51.9718" height="24.9485" fill="white" transform="translate(45.2959 50)"/>
</clipPath>
<clipPath id="clip3_52_2357">
<rect width="25.9859" height="46.2548" fill="white" transform="translate(45.2959 50)"/>
</clipPath>
<clipPath id="clip4_52_2357">
<rect width="25.9859" height="46.2548" fill="white" transform="translate(71.2827 50)"/>
</clipPath>
</defs>
</svg>
