<svg width="16" height="20" viewBox="0 0 16 20" fill="none" xmlns="http://www.w3.org/2000/svg">
<rect width="16" height="20" fill="#F2F2F2"/>
<path d="M-4084 -3515C-4084 -3516.1 -4083.1 -3517 -4082 -3517H6174C6175.1 -3517 6176 -3516.1 6176 -3515V3848C6176 3849.1 6175.1 3850 6174 3850H-4082C-4083.1 3850 -4084 3849.1 -4084 3848V-3515Z" fill="#6A6A6A"/>
<path d="M-4082 -3516H6174V-3518H-4082V-3516ZM6175 -3515V3848H6177V-3515H6175ZM6174 3849H-4082V3851H6174V3849ZM-4083 3848V-3515H-4085V3848H-4083ZM-4082 3849C-4082.55 3849 -4083 3848.55 -4083 3848H-4085C-4085 3849.66 -4083.66 3851 -4082 3851V3849ZM6175 3848C6175 3848.55 6174.55 3849 6174 3849V3851C6175.66 3851 6177 3849.66 6177 3848H6175ZM6174 -3516C6174.55 -3516 6175 -3515.55 6175 -3515H6177C6177 -3516.66 6175.66 -3518 6174 -3518V-3516ZM-4082 -3518C-4083.66 -3518 -4085 -3516.66 -4085 -3515H-4083C-4083 -3515.55 -4082.55 -3516 -4082 -3516V-3518Z" fill="white" fill-opacity="0.1"/>
<g clip-path="url(#clip0_0_125)">
<rect width="375" height="971" transform="translate(-36 -829)" fill="#070808"/>
<g clip-path="url(#clip1_0_125)">
<path fill-rule="evenodd" clip-rule="evenodd" d="M-23 10C-23 -6.56854 -9.56854 -20 7 -20H297C313.569 -20 327 -6.56854 327 10C327 26.5685 313.569 40 297 40H7C-9.56854 40 -23 26.5685 -23 10Z" fill="#101313"/>
<path d="M14.2109 9.38611C14.5499 8.95016 15.1782 8.87162 15.6142 9.21069C16.0166 9.52368 16.1145 10.0831 15.8604 10.5102L15.7896 10.614L8.78958 19.614C8.41591 20.0944 7.71329 20.1264 7.29576 19.7101L7.21088 19.614L0.210877 10.614C-0.128193 10.178 -0.0496587 9.54976 0.386288 9.21069C0.788701 8.89771 1.35499 8.94055 1.70642 9.29187L1.78958 9.38611L8.00023 17.371L14.2109 9.38611Z" fill="white"/>
<path fill-rule="evenodd" clip-rule="evenodd" d="M0.210868 9.38606L7.21087 0.386059C7.61123 -0.128686 8.38921 -0.128686 8.78957 0.386059L15.7896 9.38606C16.177 9.88418 16.0119 10.6122 15.4474 10.8944L8.44743 14.3944C8.16591 14.5352 7.83453 14.5352 7.55301 14.3944L0.553007 10.8944C-0.0114182 10.6122 -0.176557 9.88418 0.210868 9.38606ZM13.4612 9.65L8.00022 2.628L2.53822 9.65L8.00022 12.381L13.4612 9.65Z" fill="#FFF803"/>
</g>
</g>
<defs>
<clipPath id="clip0_0_125">
<rect width="375" height="971" fill="white" transform="translate(-36 -829)"/>
</clipPath>
<clipPath id="clip1_0_125">
<rect width="350" height="60" fill="white" transform="translate(-23 -20)"/>
</clipPath>
</defs>
</svg>
