<svg width="32" height="32" viewBox="0 0 32 32" fill="none" xmlns="http://www.w3.org/2000/svg">
<g id="&#231;&#188;&#150;&#231;&#187;&#132; 11">
<circle id="&#230;&#164;&#173;&#229;&#156;&#134;&#229;&#189;&#162;" cx="16" cy="16" r="16" transform="rotate(90 16 16)" fill="#FFF803"/>
<g id="&#231;&#188;&#150;&#231;&#187;&#132;">
<path id="&#229;&#189;&#162;&#231;&#138;&#182;&#231;&#187;&#147;&#229;&#144;&#136;" fill-rule="evenodd" clip-rule="evenodd" d="M23.3949 11.6398C23.693 11.9369 23.6938 12.4193 23.3968 12.7173C23.1227 12.9925 22.6905 13.0144 22.3912 12.7825L22.3193 12.7193L20.5714 10.9767V22.8571C20.5714 23.2478 20.2773 23.5699 19.8983 23.6139L19.8095 23.619C19.4188 23.619 19.0967 23.3249 19.0527 22.946L19.0476 22.8571V10.9822L17.3006 12.7292C17.0031 13.0267 16.5207 13.0267 16.2231 12.7292C15.9485 12.4545 15.9273 12.0224 16.1597 11.7235L16.2231 11.6517L19.2331 8.64176C19.2901 8.57695 19.3577 8.52276 19.432 8.48078C19.4839 8.45118 19.5384 8.42817 19.5945 8.41173C19.8194 8.34476 20.0752 8.37832 20.2828 8.54529L20.2868 8.54885C20.3077 8.56569 20.3279 8.5838 20.3473 8.60317C20.3476 8.60347 20.3479 8.60378 20.3482 8.60408L23.3949 11.6398ZM15.8402 20.2765C16.0726 19.9776 16.0515 19.5454 15.7768 19.2707C15.4793 18.9732 14.9969 18.9732 14.6993 19.2707L12.9524 21.0177V9.14283L12.9472 9.05397C12.9032 8.67505 12.5812 8.38092 12.1904 8.38092L12.1016 8.38605C11.7227 8.43006 11.4285 8.75209 11.4285 9.14283V21.0217L9.68061 19.2807L9.60872 19.2174C9.30942 18.9856 8.87728 19.0075 8.60312 19.2826C8.30611 19.5807 8.30697 20.0631 8.60505 20.3601L11.6517 23.3959L11.6527 23.3968L15.8402 20.2765ZM15.8402 20.2765L15.7768 20.3482L12.7669 23.3582L15.8402 20.2765Z" fill="#070808"/>
</g>
</g>
</svg>
