<svg width="28" height="28" viewBox="0 0 28 28" fill="none" xmlns="http://www.w3.org/2000/svg">
<g id="&#231;&#188;&#150;&#231;&#187;&#132;">
<path id="&#232;&#183;&#175;&#229;&#190;&#132;" d="M13.9997 1.23511H14.0003C21.05 1.23511 26.7649 6.95004 26.7649 13.9998V14.0003C26.7649 21.0499 21.05 26.7649 14.0003 26.7649H13.9997C6.95003 26.7649 1.23511 21.0499 1.23511 14.0003V13.9998C1.23511 6.95004 6.95003 1.23511 13.9997 1.23511Z" fill="#111111" stroke="#111111" stroke-width="0.5"/>
<path id="&#232;&#183;&#175;&#229;&#190;&#132;_2" d="M14.0003 1H13.9997C6.82019 1 1 6.8202 1 13.9998V14.0003C1 21.1798 6.82019 27 13.9997 27H14.0003C21.1798 27 27 21.1798 27 14.0003V13.9998C27 6.8202 21.1798 1 14.0003 1Z" fill="url(#paint0_radial_462_2514)" fill-opacity="0.7"/>
<path id="&#232;&#183;&#175;&#229;&#190;&#132;_3" fill-rule="evenodd" clip-rule="evenodd" d="M14.0003 1H13.9997C6.82019 1 1 6.8202 1 13.9998V14.0003C1 21.1798 6.82019 27 13.9997 27H14.0003C21.1798 27 27 21.1798 27 14.0003V13.9998C27 6.8202 21.1798 1 14.0003 1Z" stroke="url(#paint1_linear_462_2514)" stroke-width="0.5"/>
<path id="&#229;&#189;&#162;&#231;&#138;&#182;" fill-rule="evenodd" clip-rule="evenodd" d="M11.92 3.30389C6.89959 4.27092 3.10727 8.68787 3.10727 13.9906C3.10727 19.2933 6.89959 23.7102 11.92 24.6773V23.6573C7.45537 22.7056 4.10677 18.7391 4.10677 13.9906C4.10677 9.24206 7.45537 5.27562 11.92 4.3239V3.30389ZM16.08 4.3279V3.30751C21.0912 4.28188 24.8742 8.69447 24.8742 13.9906C24.8742 19.2867 21.0912 23.6993 16.08 24.6737V23.6533C20.5354 22.6945 23.8746 18.7325 23.8746 13.9906C23.8746 9.24866 20.5354 5.28668 16.08 4.3279Z" fill="white"/>
<path id="&#232;&#183;&#175;&#229;&#190;&#132;_4" d="M15.5412 13.6269C16.3717 13.7852 17.0158 14.0904 17.4736 14.5426C17.9313 14.9834 18.1603 15.5486 18.1603 16.2382V17.3235C18.1603 18.1487 17.8621 18.8156 17.266 19.3243C16.6698 19.8217 15.8873 20.0704 14.9185 20.0704H14.5831V21.8H13.4333V20.0704H13.082C12.4432 20.0704 11.879 19.9291 11.3892 19.6465C10.8995 19.3526 10.5163 18.9456 10.2395 18.4256C9.97334 17.8943 9.84027 17.2839 9.84027 16.5943H10.9901C10.9901 17.2952 11.1816 17.8661 11.5649 18.3069C11.9588 18.7365 12.4752 18.9512 13.114 18.9512H14.8865C15.5146 18.9512 16.0204 18.8043 16.4036 18.5104C16.7869 18.2052 16.9785 17.8095 16.9785 17.3235V16.2382C16.9785 15.8539 16.8348 15.526 16.5474 15.2548C16.2706 14.9834 15.8873 14.8082 15.3976 14.7291L12.5231 14.2204C11.714 14.0734 11.0859 13.7682 10.6387 13.3047C10.1915 12.8413 9.968 12.2591 9.968 11.5582V10.6426C9.968 9.81732 10.2555 9.16173 10.8303 8.6756C11.4158 8.17821 12.1877 7.92954 13.1459 7.92954H13.4333V6.19995H14.5831V7.92954H14.9504C15.8553 7.92954 16.5846 8.22341 17.1382 8.81126C17.6918 9.38779 17.9686 10.1508 17.9686 11.1004H16.8188C16.8188 10.4786 16.6485 9.98125 16.3078 9.60819C15.9671 9.23519 15.5146 9.04866 14.9504 9.04866H13.1459C12.539 9.04866 12.0546 9.19559 11.6927 9.48952C11.3307 9.77212 11.1497 10.1565 11.1497 10.6426V11.5582C11.1497 11.9539 11.2828 12.2873 11.549 12.5587C11.8258 12.8299 12.2037 13.0108 12.6828 13.1013L15.5412 13.6269Z" fill="white"/>
</g>
<defs>
<radialGradient id="paint0_radial_462_2514" cx="0" cy="0" r="1" gradientUnits="userSpaceOnUse" gradientTransform="translate(14.0279 4.79633) rotate(90) scale(27.4096)">
<stop offset="0.03125" stop-color="#3A3A3A"/>
<stop offset="1" stop-color="#1C1C1C"/>
</radialGradient>
<linearGradient id="paint1_linear_462_2514" x1="0.754698" y1="0.754714" x2="0.754698" y2="27.2453" gradientUnits="userSpaceOnUse">
<stop stop-color="white"/>
<stop offset="1" stop-color="#111111"/>
</linearGradient>
</defs>
</svg>
