<svg width="26" height="26" viewBox="0 0 26 26" fill="none" xmlns="http://www.w3.org/2000/svg">
<g id="&#231;&#188;&#150;&#231;&#187;&#132;">
<circle id="&#230;&#164;&#173;&#229;&#156;&#134;&#229;&#189;&#162;" cx="13" cy="13" r="13" fill="#009393"/>
<path id="&#229;&#189;&#162;&#231;&#138;&#182;" fill-rule="evenodd" clip-rule="evenodd" d="M8.45775 7.42859H17.7284C17.9497 7.42859 18.154 7.54982 18.2643 7.7465L20.9653 12.5618C21.1053 12.8115 21.0637 13.1267 20.8639 13.3292L13.4295 20.8646C13.1887 21.1087 12.8013 21.1087 12.5605 20.8646L5.13611 13.3394C4.93168 13.1322 4.8934 12.8078 5.04373 12.5565L7.93081 7.73105C8.04325 7.54312 8.24278 7.42859 8.45775 7.42859ZM16.5314 9.57845V10.9296H13.8906V11.8663C15.7453 11.9664 17.1369 12.3776 17.1472 12.8704L17.1472 13.8977C17.1368 14.3905 15.7453 14.8017 13.8906 14.9018V17.2007H12.137V14.9018C10.2822 14.8017 8.8907 14.3905 8.8804 13.8977L8.88043 12.8704C8.89076 12.3776 10.2822 11.9664 12.137 11.8663V10.9296H9.49616V9.57845H16.5314ZM13.0138 14.196C14.9931 14.196 16.6476 13.8483 17.0524 13.3841C16.7091 12.9904 15.4672 12.6805 13.8906 12.5954V13.5762C13.608 13.5914 13.3146 13.5995 13.0138 13.5995C12.7129 13.5995 12.4196 13.5914 12.137 13.5762V12.5954C10.5604 12.6805 9.3185 12.9904 8.97516 13.3841C9.38003 13.8483 11.0344 14.196 13.0138 14.196Z" fill="white"/>
</g>
</svg>
